<svg width="156" height="156" viewBox="0 0 156 156" fill="none" xmlns="http://www.w3.org/2000/svg">
<g id="Icon">
<path id="Vector" d="M78 153C119.421 153 153 119.421 153 78C153 36.5786 119.421 3 78 3C36.5786 3 3 36.5786 3 78C3 119.421 36.5786 153 78 153Z" stroke="#40DDB6" stroke-width="5" stroke-linecap="round" stroke-linejoin="round"/>
<g id="Icon_2">
<path id="Vector_2" opacity="0.2" d="M88.4688 81.5935C92.7374 79.267 96.1093 75.5848 98.0522 71.1284C99.995 66.6721 100.398 61.6955 99.1976 56.9846C97.9972 52.2737 95.2616 48.0969 91.423 45.1138C87.5844 42.1306 82.8615 40.5112 78 40.5112C73.1385 40.5112 68.4156 42.1306 64.577 45.1138C60.7384 48.0969 58.0029 52.2737 56.8024 56.9846C55.602 61.6955 56.005 66.6721 57.9478 71.1284C59.8907 75.5848 63.2627 79.267 67.5313 81.5935L56.75 106.75C56.3357 107.699 56.1638 108.736 56.2498 109.768C56.3357 110.8 56.6767 111.795 57.2422 112.663C57.8077 113.53 58.58 114.244 59.4895 114.739C60.3991 115.234 61.4175 115.496 62.4531 115.5H93.5469C94.5825 115.496 95.6009 115.234 96.5105 114.739C97.4201 114.244 98.1923 113.53 98.7578 112.663C99.3233 111.795 99.6644 110.8 99.7503 109.768C99.8362 108.736 99.6643 107.699 99.25 106.75L88.4688 81.5935Z" fill="#40DDB6"/>
<path id="Vector_3" d="M88.4688 81.5935C92.7374 79.267 96.1093 75.5848 98.0522 71.1284C99.995 66.6721 100.398 61.6955 99.1976 56.9846C97.9971 52.2737 95.2616 48.0969 91.423 45.1138C87.5844 42.1306 82.8615 40.5112 78 40.5112C73.1385 40.5112 68.4156 42.1306 64.577 45.1138C60.7384 48.0969 58.0029 52.2737 56.8024 56.9846C55.602 61.6955 56.005 66.6721 57.9478 71.1284C59.8907 75.5848 63.2627 79.267 67.5313 81.5935L56.75 106.75C56.3357 107.699 56.1638 108.736 56.2498 109.768C56.3357 110.8 56.6767 111.795 57.2422 112.663C57.8077 113.53 58.58 114.244 59.4895 114.739C60.3991 115.234 61.4175 115.496 62.4531 115.5H93.5469C94.5825 115.496 95.6009 115.234 96.5105 114.739C97.4201 114.244 98.1923 113.53 98.7578 112.663C99.3233 111.795 99.6644 110.8 99.7503 109.768C99.8362 108.736 99.6643 107.699 99.25 106.75L88.4688 81.5935Z" stroke="#40DDB6" stroke-width="5" stroke-linecap="round" stroke-linejoin="round"/>
</g>
</g>
</svg>
