  0
SECTION
  2
HEADER
  9
$ACADVER
  1
AC1024
  9
$ACADMAINTVER
 70
     6
  9
$DWGCODEPAGE
  3
ANSI_1252
  9
$INSBASE
 10
0.0
 20
0.0
 30
0.0
  9
$EXTMIN
 10
1.000000000000000E+20
 20
1.000000000000000E+20
 30
1.000000000000000E+20
  9
$EXTMAX
 10
-1.000000000000000E+20
 20
-1.000000000000000E+20
 30
-1.000000000000000E+20
  9
$LIMMIN
 10
0.0
 20
0.0
  9
$LIMMAX
 10
12.0
 20
9.0
  9
$ORTHOMODE
 70
     0
  9
$REGENMODE
 70
     1
  9
$FILLMODE
 70
     1
  9
$QTEXTMODE
 70
     0
  9
$MIRRTEXT
 70
     1
  9
$LTSCALE
 40
1.0
  9
$ATTMODE
 70
     1
  9
$TEXTSIZE
 40
0.2
  9
$TRACEWID
 40
0.05
  9
$TEXTSTYLE
  7
Standard
  9
$CLAYER
  8
0
  9
$CELTYPE
  6
ByLayer
  9
$CECOLOR
 62
   256
  9
$CELTSCALE
 40
1.0
  9
$DISPSILH
 70
     0
  9
$DIMSCALE
 40
1.0
  9
$DIMASZ
 40
0.18
  9
$DIMEXO
 40
0.0625
  9
$DIMDLI
 40
0.38
  9
$DIMRND
 40
0.0
  9
$DIMDLE
 40
0.0
  9
$DIMEXE
 40
0.18
  9
$DIMTP
 40
0.0
  9
$DIMTM
 40
0.0
  9
$DIMTXT
 40
0.18
  9
$DIMCEN
 40
0.09
  9
$DIMTSZ
 40
0.0
  9
$DIMTOL
 70
     0
  9
$DIMLIM
 70
     0
  9
$DIMTIH
 70
     1
  9
$DIMTOH
 70
     1
  9
$DIMSE1
 70
     0
  9
$DIMSE2
 70
     0
  9
$DIMTAD
 70
     0
  9
$DIMZIN
 70
     0
  9
$DIMBLK
  1

  9
$DIMASO
 70
     1
  9
$DIMSHO
 70
     1
  9
$DIMPOST
  1

  9
$DIMAPOST
  1

  9
$DIMALT
 70
     0
  9
$DIMALTD
 70
     2
  9
$DIMALTF
 40
25.4
  9
$DIMLFAC
 40
1.0
  9
$DIMTOFL
 70
     0
  9
$DIMTVP
 40
0.0
  9
$DIMTIX
 70
     0
  9
$DIMSOXD
 70
     0
  9
$DIMSAH
 70
     0
  9
$DIMBLK1
  1

  9
$DIMBLK2
  1

  9
$DIMSTYLE
  2
Standard
  9
$DIMCLRD
 70
     0
  9
$DIMCLRE
 70
     0
  9
$DIMCLRT
 70
     0
  9
$DIMTFAC
 40
1.0
  9
$DIMGAP
 40
0.09
  9
$DIMJUST
 70
     0
  9
$DIMSD1
 70
     0
  9
$DIMSD2
 70
     0
  9
$DIMTOLJ
 70
     1
  9
$DIMTZIN
 70
     0
  9
$DIMALTZ
 70
     0
  9
$DIMALTTZ
 70
     0
  9
$DIMUPT
 70
     0
  9
$DIMDEC
 70
     4
  9
$DIMTDEC
 70
     4
  9
$DIMALTU
 70
     2
  9
$DIMALTTD
 70
     2
  9
$DIMTXSTY
  7
Standard
  9
$DIMAUNIT
 70
     0
  9
$DIMADEC
 70
     0
  9
$DIMALTRND
 40
0.0
  9
$DIMAZIN
 70
     0
  9
$DIMDSEP
 70
    46
  9
$DIMATFIT
 70
     3
  9
$DIMFRAC
 70
     0
  9
$DIMLDRBLK
  1

  9
$DIMLUNIT
 70
     2
  9
$DIMLWD
 70
    -2
  9
$DIMLWE
 70
    -2
  9
$DIMTMOVE
 70
     0
  9
$DIMFXL
 40
1.0
  9
$DIMFXLON
 70
     0
  9
$DIMJOGANG
 40
0.7853981633974483
  9
$DIMTFILL
 70
     0
  9
$DIMTFILLCLR
 70
     0
  9
$DIMARCSYM
 70
     0
  9
$DIMLTYPE
  6

  9
$DIMLTEX1
  6

  9
$DIMLTEX2
  6

  9
$DIMTXTDIRECTION
 70
     0
  9
$LUNITS
 70
     2
  9
$LUPREC
 70
     4
  9
$SKETCHINC
 40
0.1
  9
$FILLETRAD
 40
0.5
  9
$AUNITS
 70
     0
  9
$AUPREC
 70
     0
  9
$MENU
  1
.
  9
$ELEVATION
 40
0.0
  9
$PELEVATION
 40
0.0
  9
$THICKNESS
 40
0.0
  9
$LIMCHECK
 70
     0
  9
$CHAMFERA
 40
0.5
  9
$CHAMFERB
 40
0.5
  9
$CHAMFERC
 40
1.0
  9
$CHAMFERD
 40
0.0
  9
$SKPOLY
 70
     0
  9
$TDCREATE
 40
2459115.807088137
  9
$TDUCREATE
 40
2459115.39042147
  9
$TDUPDATE
 40
2459115.807088171
  9
$TDUUPDATE
 40
2459115.390421505
  9
$TDINDWG
 40
0.0000000116
  9
$TDUSRTIMER
 40
0.0000000116
  9
$USRTIMER
 70
     1
  9
$ANGBASE
 50
0.0
  9
$ANGDIR
 70
     0
  9
$PDMODE
 70
     0
  9
$PDSIZE
 40
0.0
  9
$PLINEWID
 40
0.0
  9
$SPLFRAME
 70
     0
  9
$SPLINETYPE
 70
     6
  9
$SPLINESEGS
 70
     8
  9
$HANDSEED
  5
69
  9
$SURFTAB1
 70
     6
  9
$SURFTAB2
 70
     6
  9
$SURFTYPE
 70
     6
  9
$SURFU
 70
     6
  9
$SURFV
 70
     6
  9
$UCSBASE
  2

  9
$UCSNAME
  2

  9
$UCSORG
 10
0.0
 20
0.0
 30
0.0
  9
$UCSXDIR
 10
1.0
 20
0.0
 30
0.0
  9
$UCSYDIR
 10
0.0
 20
1.0
 30
0.0
  9
$UCSORTHOREF
  2

  9
$UCSORTHOVIEW
 70
     0
  9
$UCSORGTOP
 10
0.0
 20
0.0
 30
0.0
  9
$UCSORGBOTTOM
 10
0.0
 20
0.0
 30
0.0
  9
$UCSORGLEFT
 10
0.0
 20
0.0
 30
0.0
  9
$UCSORGRIGHT
 10
0.0
 20
0.0
 30
0.0
  9
$UCSORGFRONT
 10
0.0
 20
0.0
 30
0.0
  9
$UCSORGBACK
 10
0.0
 20
0.0
 30
0.0
  9
$PUCSBASE
  2

  9
$PUCSNAME
  2

  9
$PUCSORG
 10
0.0
 20
0.0
 30
0.0
  9
$PUCSXDIR
 10
1.0
 20
0.0
 30
0.0
  9
$PUCSYDIR
 10
0.0
 20
1.0
 30
0.0
  9
$PUCSORTHOREF
  2

  9
$PUCSORTHOVIEW
 70
     0
  9
$PUCSORGTOP
 10
0.0
 20
0.0
 30
0.0
  9
$PUCSORGBOTTOM
 10
0.0
 20
0.0
 30
0.0
  9
$PUCSORGLEFT
 10
0.0
 20
0.0
 30
0.0
  9
$PUCSORGRIGHT
 10
0.0
 20
0.0
 30
0.0
  9
$PUCSORGFRONT
 10
0.0
 20
0.0
 30
0.0
  9
$PUCSORGBACK
 10
0.0
 20
0.0
 30
0.0
  9
$USERI1
 70
     0
  9
$USERI2
 70
     0
  9
$USERI3
 70
     0
  9
$USERI4
 70
     0
  9
$USERI5
 70
     0
  9
$USERR1
 40
0.0
  9
$USERR2
 40
0.0
  9
$USERR3
 40
0.0
  9
$USERR4
 40
0.0
  9
$USERR5
 40
0.0
  9
$WORLDVIEW
 70
     1
  9
$SHADEDGE
 70
     3
  9
$SHADEDIF
 70
    70
  9
$TILEMODE
 70
     1
  9
$MAXACTVP
 70
    64
  9
$PINSBASE
 10
0.0
 20
0.0
 30
0.0
  9
$PLIMCHECK
 70
     0
  9
$PEXTMIN
 10
1.000000000000000E+20
 20
1.000000000000000E+20
 30
1.000000000000000E+20
  9
$PEXTMAX
 10
-1.000000000000000E+20
 20
-1.000000000000000E+20
 30
-1.000000000000000E+20
  9
$PLIMMIN
 10
0.0
 20
0.0
  9
$PLIMMAX
 10
12.0
 20
9.0
  9
$UNITMODE
 70
     0
  9
$VISRETAIN
 70
     1
  9
$PLINEGEN
 70
     0
  9
$PSLTSCALE
 70
     1
  9
$TREEDEPTH
 70
  3020
  9
$CMLSTYLE
  2
Standard
  9
$CMLJUST
 70
     0
  9
$CMLSCALE
 40
1.0
  9
$PROXYGRAPHICS
 70
     1
  9
$MEASUREMENT
 70
     0
  9
$CELWEIGHT
370
    -1
  9
$ENDCAPS
280
     0
  9
$JOINSTYLE
280
     0
  9
$LWDISPLAY
290
     1
  9
$INSUNITS
 70
     1
  9
$HYPERLINKBASE
  1

  9
$STYLESHEET
  1

  9
$XEDIT
290
     1
  9
$CEPSNTYPE
380
     0
  9
$PSTYLEMODE
290
     1
  9
$FINGERPRINTGUID
  2
{483C6E50-759F-4357-8D16-343168C8A8CC}
  9
$VERSIONGUID
  2
{FAEB1C32-E019-11D5-929B-00C0DF256EC4}
  9
$EXTNAMES
290
     1
  9
$PSVPSCALE
 40
0.0
  9
$OLESTARTUP
290
     0
  9
$SORTENTS
280
   127
  9
$INDEXCTL
280
     0
  9
$HIDETEXT
280
     1
  9
$XCLIPFRAME
280
     2
  9
$HALOGAP
280
     0
  9
$OBSCOLOR
 70
   257
  9
$OBSLTYPE
280
     0
  9
$INTERSECTIONDISPLAY
280
     0
  9
$INTERSECTIONCOLOR
 70
   257
  9
$DIMASSOC
280
     2
  9
$PROJECTNAME
  1

  9
$CAMERADISPLAY
290
     0
  9
$LENSLENGTH
 40
50.0
  9
$CAMERAHEIGHT
 40
0.0
  9
$STEPSPERSEC
 40
2.0
  9
$STEPSIZE
 40
6.0
  9
$3DDWFPREC
 40
2.0
  9
$PSOLWIDTH
 40
0.25
  9
$PSOLHEIGHT
 40
4.0
  9
$LOFTANG1
 40
1.570796326794897
  9
$LOFTANG2
 40
1.570796326794897
  9
$LOFTMAG1
 40
0.0
  9
$LOFTMAG2
 40
0.0
  9
$LOFTPARAM
 70
     7
  9
$LOFTNORMALS
280
     1
  9
$LATITUDE
 40
37.795
  9
$LONGITUDE
 40
-122.394
  9
$NORTHDIRECTION
 40
0.0
  9
$TIMEZONE
 70
 -8000
  9
$LIGHTGLYPHDISPLAY
280
     1
  9
$TILEMODELIGHTSYNCH
280
     1
  9
$CMATERIAL
347
3C
  9
$SOLIDHIST
280
     1
  9
$SHOWHIST
280
     1
  9
$DWFFRAME
280
     2
  9
$DGNFRAME
280
     2
  9
$REALWORLDSCALE
290
     1
  9
$INTERFERECOLOR
 62
   256
  9
$CSHADOW
280
     0
  9
$SHADOWPLANELOCATION
 40
0.0
  0
ENDSEC
  0
SECTION
  2
CLASSES
  0
CLASS
  1
ACDBDICTIONARYWDFLT
  2
AcDbDictionaryWithDefault
  3
ObjectDBX Classes
 90
        0
 91
        4
280
     0
281
     0
  0
CLASS
  1
VISUALSTYLE
  2
AcDbVisualStyle
  3
ObjectDBX Classes
 90
     4095
 91
        4
280
     0
281
     0
  0
CLASS
  1
MATERIAL
  2
AcDbMaterial
  3
ObjectDBX Classes
 90
     1153
 91
        4
280
     0
281
     0
  0
CLASS
  1
SUN
  2
AcDbSun
  3
SCENEOE
 90
     1024
 91
        4
280
     0
281
     0
  0
ENDSEC
  0
SECTION
  2
TABLES
  0
TABLE
  2
VPORT
  5
8
330
0
100
AcDbSymbolTable
 70
     1
  0
VPORT
  5
29
330
8
100
AcDbSymbolTableRecord
100
AcDbViewportTableRecord
  2
*Active
 70
     0
 10
0.0
 20
0.0
 11
1.0
 21
1.0
 12
0.0
 22
0.0
 13
0.0
 23
0.0
 14
0.5
 24
0.5
 15
0.5
 25
0.5
 16
0.0
 26
0.0
 36
1.0
 17
6.0
 27
-6.0
 37
0.0
 40
12.0
 41
1.0
 42
50.0
 43
0.0
 44
0.0
 50
0.0
 51
0.0
 71
     0
 72
   100
 73
     1
 74
     3
 75
     0
 76
     0
 77
     0
 78
     0
281
     0
 65
     1
110
0.0
120
0.0
130
0.0
111
1.0
121
0.0
131
0.0
112
0.0
122
1.0
132
0.0
 79
     0
146
0.0
 60
     3
 61
     5
292
     1
282
     1
141
0.0
142
0.0
 63
   250
361
3F
  0
ENDTAB
  0
TABLE
  2
LTYPE
  5
5
330
0
100
AcDbSymbolTable
 70
     1
  0
LTYPE
  5
14
330
5
100
AcDbSymbolTableRecord
100
AcDbLinetypeTableRecord
  2
ByBlock
 70
     0
  3

 72
    65
 73
     0
 40
0.0
  0
LTYPE
  5
15
330
5
100
AcDbSymbolTableRecord
100
AcDbLinetypeTableRecord
  2
ByLayer
 70
     0
  3

 72
    65
 73
     0
 40
0.0
  0
LTYPE
  5
16
330
5
100
AcDbSymbolTableRecord
100
AcDbLinetypeTableRecord
  2
Continuous
 70
     0
  3
Solid line
 72
    65
 73
     0
 40
0.0
  0
ENDTAB
  0
TABLE
  2
LAYER
  5
2
330
0
100
AcDbSymbolTable
 70
     2
  0
LAYER
  5
10
330
2
100
AcDbSymbolTableRecord
100
AcDbLayerTableRecord
  2
0
 70
     0
 62
     7
  6
Continuous
370
    -3
390
F
347
3E
  0
LAYER
  5
40
330
2
100
AcDbSymbolTableRecord
100
AcDbLayerTableRecord
  2
Layer 1
 70
     0
 62
     7
  6
Continuous
370
    -3
390
F
347
3E
  0
ENDTAB
  0
TABLE
  2
STYLE
  5
3
330
0
100
AcDbSymbolTable
 70
     1
  0
STYLE
  5
11
330
3
100
AcDbSymbolTableRecord
100
AcDbTextStyleTableRecord
  2
Standard
 70
     0
 40
0.0
 41
1.0
 50
0.0
 71
     0
 42
0.2
  3
txt
  4

  0
ENDTAB
  0
TABLE
  2
VIEW
  5
6
330
0
100
AcDbSymbolTable
 70
     0
  0
ENDTAB
  0
TABLE
  2
UCS
  5
7
330
0
100
AcDbSymbolTable
 70
     0
  0
ENDTAB
  0
TABLE
  2
APPID
  5
9
330
0
100
AcDbSymbolTable
 70
     1
  0
APPID
  5
12
330
9
100
AcDbSymbolTableRecord
100
AcDbRegAppTableRecord
  2
ACAD
 70
     0
  0
ENDTAB
  0
TABLE
  2
DIMSTYLE
  5
A
330
0
100
AcDbSymbolTable
 70
     1
100
AcDbDimStyleTable
  0
DIMSTYLE
105
27
330
A
100
AcDbSymbolTableRecord
100
AcDbDimStyleTableRecord
  2
Standard
 70
     0
178
     0
340
11
  0
ENDTAB
  0
TABLE
  2
BLOCK_RECORD
  5
1
330
0
100
AcDbSymbolTable
 70
     1
  0
BLOCK_RECORD
  5
1F
330
1
100
AcDbSymbolTableRecord
100
AcDbBlockTableRecord
  2
*Model_Space
340
22
 70
     0
280
     1
281
     0
  0
BLOCK_RECORD
  5
1B
330
1
100
AcDbSymbolTableRecord
100
AcDbBlockTableRecord
  2
*Paper_Space
340
1E
 70
     0
280
     1
281
     0
  0
BLOCK_RECORD
  5
23
330
1
100
AcDbSymbolTableRecord
100
AcDbBlockTableRecord
  2
*Paper_Space0
340
26
 70
     0
280
     1
281
     0
  0
ENDTAB
  0
ENDSEC
  0
SECTION
  2
BLOCKS
  0
BLOCK
  5
20
330
1F
100
AcDbEntity
  8
0
100
AcDbBlockBegin
  2
*Model_Space
 70
     0
 10
0.0
 20
0.0
 30
0.0
  3
*Model_Space
  1

  0
ENDBLK
  5
21
330
1F
100
AcDbEntity
  8
0
100
AcDbBlockEnd
  0
BLOCK
  5
1C
330
1B
100
AcDbEntity
 67
     1
  8
0
100
AcDbBlockBegin
  2
*Paper_Space
 70
     0
 10
0.0
 20
0.0
 30
0.0
  3
*Paper_Space
  1

  0
ENDBLK
  5
1D
330
1B
100
AcDbEntity
 67
     1
  8
0
100
AcDbBlockEnd
  0
BLOCK
  5
24
330
23
100
AcDbEntity
  8
0
100
AcDbBlockBegin
  2
*Paper_Space0
 70
     0
 10
0.0
 20
0.0
 30
0.0
  3
*Paper_Space0
  1

  0
ENDBLK
  5
25
330
23
100
AcDbEntity
  8
0
100
AcDbBlockEnd
  0
ENDSEC
  0
SECTION
  2
ENTITIES
  0
SPLINE
  5
41
330
1F
100
AcDbEntity
  8
Layer 1
370
     0
100
AcDbSpline
210
0.0
220
0.0
230
1.0
 70
    11
 71
     3
 72
    65
 73
    61
 74
     0
 42
0.0000000001
 43
0.0000000001
 12
1.0
 22
0.0
 32
0.0
 13
1.0
 23
0.0
 33
0.0
 40
0.0
 40
0.0
 40
0.0
 40
0.0
 40
1.0
 40
1.0
 40
1.0
 40
2.0
 40
2.0
 40
2.0
 40
3.0
 40
3.0
 40
3.0
 40
4.0
 40
4.0
 40
4.0
 40
5.0
 40
5.0
 40
5.0
 40
6.0
 40
6.0
 40
6.0
 40
7.0
 40
7.0
 40
7.0
 40
8.0
 40
8.0
 40
8.0
 40
9.0
 40
9.0
 40
9.0
 40
10.0
 40
10.0
 40
10.0
 40
11.0
 40
11.0
 40
11.0
 40
12.0
 40
12.0
 40
12.0
 40
13.0
 40
13.0
 40
13.0
 40
14.0
 40
14.0
 40
14.0
 40
15.0
 40
15.0
 40
15.0
 40
16.0
 40
16.0
 40
16.0
 40
17.0
 40
17.0
 40
17.0
 40
18.0
 40
18.0
 40
18.0
 40
19.0
 40
19.0
 40
19.0
 40
20.0
 40
20.0
 40
20.0
 40
20.0
 10
5.441127777099609
 20
-8.116106669108072
 30
0.0
 10
5.493556976318359
 20
-7.475729200575087
 30
0.0
 10
4.916504330105251
 20
-6.79575686984592
 30
0.0
 10
4.276128980848524
 20
-6.74332767062717
 30
0.0
 10
3.910449981689453
 20
-6.713395860460069
 30
0.0
 10
3.570999993218316
 20
-6.889912499321831
 30
0.0
 10
3.320313771565755
 20
-7.240362379286024
 30
0.0
 10
3.215255525377061
 20
-7.3872316148546
 30
0.0
 10
3.124765184190538
 20
-7.563758002387153
 30
0.0
 10
3.049018012152778
 20
-7.769171820746528
 30
0.0
 10
3.007685979207356
 20
-7.554168701171875
 30
0.0
 10
2.947094387478299
 20
-7.365236070421006
 30
0.0
 10
2.867337544759114
 20
-7.203286912706163
 30
0.0
 10
2.676990297105577
 20
-6.816716088189018
 30
0.0
 10
2.370769500732422
 20
-6.587345123291016
 30
0.0
 10
2.005101521809896
 20
-6.557401021321614
 30
0.0
 10
1.364715364244249
 20
-6.50495359632704
 30
0.0
 10
0.6847987704806857
 20
-7.082027435302734
 30
0.0
 10
0.6323223114013672
 20
-7.722401936848958
 30
0.0
 10
0.6023931503295898
 20
-8.088081359863281
 30
0.0
 10
0.7789070341322156
 20
-8.427530924479166
 30
0.0
 10
1.129359775119358
 20
-8.678217569986979
 30
0.0
 10
1.275579240587023
 20
-8.782814873589409
 30
0.0
 10
1.45133474138048
 20
-8.873035854763454
 30
0.0
 10
1.65567504035102
 20
-8.948607550726996
 30
0.0
 10
0.9916195339626735
 20
-9.075637817382812
 30
0.0
 10
0.6861195034450954
 20
-9.366064283582899
 30
0.0
 10
0.5481903288099501
 20
-9.634589301215277
 30
0.0
 10
0.3522653314802381
 20
-10.01613532172309
 30
0.0
 10
0.4384458859761556
 20
-10.51340484619141
 30
0.0
 10
0.7677611774868435
 20
-10.9014409383138
 30
0.0
 10
1.097063912285699
 20
-11.28946855333116
 30
0.0
 10
1.573686175876194
 20
-11.45538414849175
 30
0.0
 10
1.982018152872721
 20
-11.32413567437066
 30
0.0
 10
2.269455591837565
 20
-11.23174794514974
 30
0.0
 10
2.605640411376953
 20
-10.97759840223524
 30
0.0
 10
2.838998582628038
 20
-10.34295484754774
 30
0.0
 10
2.880324893527561
 20
-10.5569093492296
 30
0.0
 10
2.940745883517795
 20
-10.74493916829427
 30
0.0
 10
3.020184622870551
 20
-10.90625593397352
 30
0.0
 10
3.210537380642361
 20
-11.29281531439887
 30
0.0
 10
3.516747156778971
 20
-11.52219729953342
 30
0.0
 10
3.882426367865668
 20
-11.55213334825304
 30
0.0
 10
4.339689042833117
 20
-11.58956570095486
 30
0.0
 10
4.817084842258029
 20
-11.30613878038194
 30
0.0
 10
5.071827782524957
 20
-10.9077885945638
 30
0.0
 10
5.173856947157118
 20
-10.74826388888889
 30
0.0
 10
5.240208519829644
 20
-10.57024129231771
 30
0.0
 10
5.255198584662543
 20
-10.38712904188368
 30
0.0
 10
5.285133361816406
 20
-10.02145300971137
 30
0.0
 10
5.108620961507161
 20
-9.682000054253471
 30
0.0
 10
4.758166842990451
 20
-9.431313408745659
 30
0.0
 10
4.611341688368055
 20
-9.326284620496962
 30
0.0
 10
4.434782240125868
 20
-9.235772874620226
 30
0.0
 10
4.229362487792969
 20
-9.160024854871962
 30
0.0
 10
4.444376203748915
 20
-9.118687099880642
 30
0.0
 10
4.633297390407986
 20
-9.058095296223957
 30
0.0
 10
4.795252905951606
 20
-8.978344387478298
 30
0.0
 10
5.181827969021267
 20
-8.788000318739149
 30
0.0
 10
5.411186218261719
 20
-8.481761508517796
 30
0.0
 10
5.441127777099609
 20
-8.116106669108072
 30
0.0
  0
SPLINE
  5
42
330
1F
100
AcDbEntity
  8
Layer 1
370
     0
100
AcDbSpline
210
0.0
220
0.0
230
1.0
 70
    11
 71
     3
 72
    26
 73
    22
 74
     0
 42
0.0000000001
 43
0.0000000001
 12
1.0
 22
0.0
 32
0.0
 13
1.0
 23
0.0
 33
0.0
 40
0.0
 40
0.0
 40
0.0
 40
0.0
 40
1.0
 40
1.0
 40
1.0
 40
2.0
 40
2.0
 40
2.0
 40
3.0
 40
3.0
 40
3.0
 40
4.0
 40
4.0
 40
4.0
 40
5.0
 40
5.0
 40
5.0
 40
6.0
 40
6.0
 40
6.0
 40
7.0
 40
7.0
 40
7.0
 40
7.0
 10
1.88977919684516
 20
-11.03717803955078
 30
0.0
 10
1.597926457722982
 20
-11.13099755181207
 30
0.0
 10
1.24771245320638
 20
-11.00115288628472
 30
0.0
 10
0.9975736406114366
 20
-10.70640563964844
 30
0.0
 10
0.7474333445231119
 20
-10.41166093614366
 30
0.0
 10
0.676279173956977
 20
-10.04499138726128
 30
0.0
 10
0.8163278367784288
 20
-9.772288004557291
 30
0.0
 10
0.8251236809624566
 20
-9.755144755045572
 30
0.0
 10
0.835234800974528
 20
-9.73738267686632
 30
0.0
 10
0.8469375504387749
 20
-9.719089084201388
 30
0.0
 10
0.9664639366997613
 20
-9.532224019368488
 30
0.0
 10
1.248545858595106
 20
-9.295560201009113
 30
0.0
 10
1.911240259806315
 20
-9.213717990451388
 30
0.0
 10
1.939395904541016
 20
-9.398638407389322
 30
0.0
 10
2.017284605238173
 20
-9.578218248155382
 30
0.0
 10
2.146947224934896
 20
-9.731000264485676
 30
0.0
 10
2.273995929294162
 20
-9.880704243977863
 30
0.0
 10
2.436791737874349
 20
-9.989087422688801
 30
0.0
 10
2.618959638807508
 20
-10.04827287462023
 30
0.0
 10
2.411977767944336
 20
-10.75123087565104
 30
0.0
 10
2.095487594604492
 20
-10.97107187906901
 30
0.0
 10
1.88977919684516
 20
-11.03717803955078
 30
0.0
  0
SPLINE
  5
43
330
1F
100
AcDbEntity
  8
Layer 1
370
     0
100
AcDbSpline
210
0.0
220
0.0
230
1.0
 70
    11
 71
     3
 72
    23
 73
    19
 74
     0
 42
0.0000000001
 43
0.0000000001
 12
1.0
 22
0.0
 32
0.0
 13
1.0
 23
0.0
 33
0.0
 40
0.0
 40
0.0
 40
0.0
 40
0.0
 40
1.0
 40
1.0
 40
1.0
 40
2.0
 40
2.0
 40
2.0
 40
3.0
 40
3.0
 40
3.0
 40
4.0
 40
4.0
 40
4.0
 40
5.0
 40
5.0
 40
5.0
 40
6.0
 40
6.0
 40
6.0
 40
6.0
 10
2.267537434895833
 20
-8.257949829101562
 30
0.0
 10
2.11550415886773
 20
-8.386985778808594
 30
0.0
 10
2.009688907199436
 20
-8.550516764322916
 30
0.0
 10
1.951645745171441
 20
-8.727396647135416
 30
0.0
 10
1.266011026170519
 20
-8.52398935953776
 30
0.0
 10
0.8972013261583116
 20
-8.180976019965277
 30
0.0
 10
0.93273745642768
 20
-7.747013515896267
 30
0.0
 10
0.9438054826524522
 20
-7.611762152777778
 30
0.0
 10
0.9937694337632921
 20
-7.479041205512153
 30
0.0
 10
1.070572217305501
 20
-7.358956231011284
 30
0.0
 10
1.266215218438042
 20
-7.053092532687717
 30
0.0
 10
1.636029137505425
 20
-6.8296144273546
 30
0.0
 10
1.980516645643446
 20
-6.857810550265842
 30
0.0
 10
2.414468129475911
 20
-6.893338521321614
 30
0.0
 10
2.692926406860352
 20
-7.313020494249131
 30
0.0
 10
2.782102796766493
 20
-8.022606743706596
 30
0.0
 10
2.598138809204102
 20
-8.051102532280815
 30
0.0
 10
2.419576432969835
 20
-8.128922356499565
 30
0.0
 10
2.267537434895833
 20
-8.257949829101562
 30
0.0
  0
SPLINE
  5
44
330
1F
100
AcDbEntity
  8
Layer 1
370
     0
100
AcDbSpline
210
0.0
220
0.0
230
1.0
 70
    11
 71
     3
 72
    29
 73
    25
 74
     0
 42
0.0000000001
 43
0.0000000001
 12
1.0
 22
0.0
 32
0.0
 13
1.0
 23
0.0
 33
0.0
 40
0.0
 40
0.0
 40
0.0
 40
0.0
 40
1.0
 40
1.0
 40
1.0
 40
2.0
 40
2.0
 40
2.0
 40
3.0
 40
3.0
 40
3.0
 40
4.0
 40
4.0
 40
4.0
 40
5.0
 40
5.0
 40
5.0
 40
6.0
 40
6.0
 40
6.0
 40
7.0
 40
7.0
 40
7.0
 40
8.0
 40
8.0
 40
8.0
 40
8.0
 10
4.582813686794704
 20
-9.676476372612846
 30
0.0
 10
4.84742185804579
 20
-9.865748935275606
 30
0.0
 10
4.976044125027126
 20
-10.10298156738281
 30
0.0
 10
4.954805162217881
 20
-10.36253356933594
 30
0.0
 10
4.915534125434028
 20
-10.84225040011936
 30
0.0
 10
4.386741214328342
 20
-11.29100460476345
 30
0.0
 10
3.907013363308376
 20
-11.25172763400608
 30
0.0
 10
3.647467719184028
 20
-11.23047044542101
 30
0.0
 10
3.434307734171549
 20
-11.06496768527561
 30
0.0
 10
3.290589650472005
 20
-10.77310943603516
 30
0.0
 10
3.199517356024848
 20
-10.58815256754557
 30
0.0
 10
3.137211905585395
 20
-10.35887315538194
 30
0.0
 10
3.103372997707791
 20
-10.087767706977
 30
0.0
 10
3.292468812730577
 20
-10.05890825059679
 30
0.0
 10
3.470461951361762
 20
-9.97848171657986
 30
0.0
 10
3.619987063937717
 20
-9.851593865288628
 30
0.0
 10
3.701235877143012
 20
-9.782635158962673
 30
0.0
 10
3.769278632269965
 20
-9.703876071506075
 30
0.0
 10
3.823921627468533
 20
-9.618445502387152
 30
0.0
 10
3.871922810872396
 20
-9.543403625488281
 30
0.0
 10
3.909361945258246
 20
-9.463194105360243
 30
0.0
 10
3.936443752712673
 20
-9.380108303493923
 30
0.0
 10
4.198702918158637
 20
-9.457617865668402
 30
0.0
 10
4.415002610948351
 20
-9.556441413031683
 30
0.0
 10
4.582813686794704
 20
-9.676476372612846
 30
0.0
  0
SPLINE
  5
45
330
1F
100
AcDbEntity
  8
Layer 1
370
     0
100
AcDbSpline
210
0.0
220
0.0
230
1.0
 70
    11
 71
     3
 72
    20
 73
    16
 74
     0
 42
0.0000000001
 43
0.0000000001
 12
1.0
 22
0.0
 32
0.0
 13
1.0
 23
0.0
 33
0.0
 40
0.0
 40
0.0
 40
0.0
 40
0.0
 40
1.0
 40
1.0
 40
1.0
 40
2.0
 40
2.0
 40
2.0
 40
3.0
 40
3.0
 40
3.0
 40
4.0
 40
4.0
 40
4.0
 40
5.0
 40
5.0
 40
5.0
 40
5.0
 10
3.975808461507161
 20
-8.893135070800781
 30
0.0
 10
3.94730716281467
 20
-8.709168328179253
 30
0.0
 10
3.869604322645399
 20
-8.530592176649305
 30
0.0
 10
3.74058363172743
 20
-8.37855699327257
 30
0.0
 10
3.611557430691189
 20
-8.226512485080296
 30
0.0
 10
3.448026657104492
 20
-8.120685153537327
 30
0.0
 10
3.271143383449978
 20
-8.06264156765408
 30
0.0
 10
3.474548975626627
 20
-7.377012464735243
 30
0.0
 10
3.817569732666016
 20
-7.008220672607422
 30
0.0
 10
4.251532236735025
 20
-7.043745676676432
 30
0.0
 10
4.731249067518446
 20
-7.083016713460286
 30
0.0
 10
5.179990556504991
 20
-7.61179945203993
 30
0.0
 10
5.140719943576388
 20
-8.09151882595486
 30
0.0
 10
5.105170779758029
 20
-8.525526258680555
 30
0.0
 10
4.685459560818142
 20
-8.80398220486111
 30
0.0
 10
3.975808461507161
 20
-8.893135070800781
 30
0.0
  0
SPLINE
  5
46
330
1F
100
AcDbEntity
  8
Layer 1
370
     0
100
AcDbSpline
210
0.0
220
0.0
230
1.0
 70
    11
 71
     3
 72
    65
 73
    61
 74
     0
 42
0.0000000001
 43
0.0000000001
 12
1.0
 22
0.0
 32
0.0
 13
1.0
 23
0.0
 33
0.0
 40
0.0
 40
0.0
 40
0.0
 40
0.0
 40
1.0
 40
1.0
 40
1.0
 40
2.0
 40
2.0
 40
2.0
 40
3.0
 40
3.0
 40
3.0
 40
4.0
 40
4.0
 40
4.0
 40
5.0
 40
5.0
 40
5.0
 40
6.0
 40
6.0
 40
6.0
 40
7.0
 40
7.0
 40
7.0
 40
8.0
 40
8.0
 40
8.0
 40
9.0
 40
9.0
 40
9.0
 40
10.0
 40
10.0
 40
10.0
 40
11.0
 40
11.0
 40
11.0
 40
12.0
 40
12.0
 40
12.0
 40
13.0
 40
13.0
 40
13.0
 40
14.0
 40
14.0
 40
14.0
 40
15.0
 40
15.0
 40
15.0
 40
16.0
 40
16.0
 40
16.0
 40
17.0
 40
17.0
 40
17.0
 40
18.0
 40
18.0
 40
18.0
 40
19.0
 40
19.0
 40
19.0
 40
20.0
 40
20.0
 40
20.0
 40
20.0
 10
11.4426515367296
 20
-8.945875379774305
 30
0.0
 10
11.28878445095486
 20
-8.655570136176214
 30
0.0
 10
10.99182891845703
 20
-8.484664069281683
 30
0.0
 10
10.60648091634114
 20
-8.464654710557726
 30
0.0
 10
10.44500054253472
 20
-8.45627170138889
 30
0.0
 10
10.26816558837891
 20
-8.473182678222656
 30
0.0
 10
10.07664913601345
 20
-8.515160454644096
 30
0.0
 10
10.21890174018012
 20
-8.380231221516926
 30
0.0
 10
10.33219231499566
 20
-8.243353101942274
 30
0.0
 10
10.41588422987196
 20
-8.10504404703776
 30
0.0
 10
10.61566162109375
 20
-7.774919297960069
 30
0.0
 10
10.64093187120226
 20
-7.433231777615017
 30
0.0
 10
10.48707580566406
 20
-7.142929077148438
 30
0.0
 10
10.21763865152995
 20
-6.634523603651258
 30
0.0
 10
9.454218546549479
 20
-6.400054083930121
 30
0.0
 10
8.945805019802517
 20
-6.669469197591146
 30
0.0
 10
8.655499776204426
 20
-6.823342641194661
 30
0.0
 10
8.484593709309895
 20
-7.120296902126736
 30
0.0
 10
8.464584350585938
 20
-7.505634731716579
 30
0.0
 10
8.456232706705729
 20
-7.666412353515625
 30
0.0
 10
8.472981770833332
 20
-7.842537773980034
 30
0.0
 10
8.51456790500217
 20
-8.033151414659288
 30
0.0
 10
8.098309834798176
 20
-7.593498229980469
 30
0.0
 10
7.731808132595486
 20
-7.503169589572482
 30
0.0
 10
7.462677849663628
 20
-7.52868906656901
 30
0.0
 10
7.080301496717665
 20
-7.564992268880208
 30
0.0
 10
6.746758355034721
 20
-7.869954427083333
 30
0.0
 10
6.612936231825087
 20
-8.30562252468533
 30
0.0
 10
6.479108598497178
 20
-8.74127705891927
 30
0.0
 10
6.583920796712239
 20
-9.180897182888454
 30
0.0
 10
6.879973517523871
 20
-9.425607469346788
 30
0.0
 10
7.088363647460938
 20
-9.597865634494356
 30
0.0
 10
7.442314995659721
 20
-9.728848775227863
 30
0.0
 10
8.033677842881945
 20
-9.59865485297309
 30
0.0
 10
7.892217848036024
 20
-9.733066982693142
 30
0.0
 10
7.779524909125434
 20
-9.869381374782986
 30
0.0
 10
7.696156819661458
 20
-10.00714959038628
 30
0.0
 10
7.496395534939236
 20
-10.33727433946398
 30
0.0
 10
7.471108330620659
 20
-10.67896525065104
 30
0.0
 10
7.624976264105903
 20
-10.96926456027561
 30
0.0
 10
7.817377726236979
 20
-11.33228641086154
 30
0.0
 10
8.26155514187283
 20
-11.55566151936849
 30
0.0
 10
8.684985690646702
 20
-11.55562676323785
 30
0.0
 10
8.854552374945746
 20
-11.5556157430013
 30
0.0
 10
9.020873175726996
 20
-11.51976437038845
 30
0.0
 10
9.166247049967447
 20
-11.44272274441189
 30
0.0
 10
9.456552293565538
 20
-11.28885565863715
 30
0.0
 10
9.627456665039062
 20
-10.9918950398763
 30
0.0
 10
9.647467719184027
 20
-10.60655721028646
 30
0.0
 10
9.655854119194878
 20
-10.44510989718967
 30
0.0
 10
9.638939751519096
 20
-10.26824442545573
 30
0.0
 10
9.596961127387152
 20
-10.07673051622179
 30
0.0
 10
9.731901380750868
 20
-10.21898312038845
 30
0.0
 10
9.868765089246962
 20
-10.33226267496745
 30
0.0
 10
10.0070809258355
 20
-10.41595798068576
 30
0.0
 10
10.33720482720269
 20
-10.61573537190755
 30
0.0
 10
10.67889997694227
 20
-10.64099375406901
 30
0.0
 10
10.96919504801432
 20
-10.48714447021484
 30
0.0
 10
11.47758992513021
 20
-10.21769714355469
 30
0.0
 10
11.71209971110026
 20
-9.454266866048176
 30
0.0
 10
11.4426515367296
 20
-8.945875379774305
 30
0.0
  0
SPLINE
  5
47
330
1F
100
AcDbEntity
  8
Layer 1
370
     0
100
AcDbSpline
210
0.0
220
0.0
230
1.0
 70
    11
 71
     3
 72
    17
 73
    13
 74
     0
 42
0.0000000001
 43
0.0000000001
 12
1.0
 22
0.0
 32
0.0
 13
1.0
 23
0.0
 33
0.0
 40
0.0
 40
0.0
 40
0.0
 40
0.0
 40
1.0
 40
1.0
 40
1.0
 40
2.0
 40
2.0
 40
2.0
 40
3.0
 40
3.0
 40
3.0
 40
4.0
 40
4.0
 40
4.0
 40
4.0
 10
9.072200351291231
 20
-6.907967885335286
 30
0.0
 10
9.179572211371527
 20
-6.851056840684678
 30
0.0
 10
9.303807576497395
 20
-6.824702792697482
 30
0.0
 10
9.431450737847221
 20
-6.824702792697482
 30
0.0
 10
9.75659688313802
 20
-6.824702792697482
 30
0.0
 10
10.10363260904948
 20
-6.995851304796006
 30
0.0
 10
10.2485851711697
 20
-7.269332038031684
 30
0.0
 10
10.49642435709635
 20
-7.736946953667534
 30
0.0
 10
10.07286834716797
 20
-8.329974704318577
 30
0.0
 10
9.112894694010416
 20
-8.87091573079427
 30
0.0
 10
8.62216101752387
 20
-7.884333292643229
 30
0.0
 10
8.604571872287327
 20
-7.155806647406684
 30
0.0
 10
9.072200351291231
 20
-6.907967885335286
 30
0.0
  0
SPLINE
  5
48
330
1F
100
AcDbEntity
  8
Layer 1
370
     0
100
AcDbSpline
210
0.0
220
0.0
230
1.0
 70
    11
 71
     3
 72
    20
 73
    16
 74
     0
 42
0.0000000001
 43
0.0000000001
 12
1.0
 22
0.0
 32
0.0
 13
1.0
 23
0.0
 33
0.0
 40
0.0
 40
0.0
 40
0.0
 40
0.0
 40
1.0
 40
1.0
 40
1.0
 40
2.0
 40
2.0
 40
2.0
 40
3.0
 40
3.0
 40
3.0
 40
4.0
 40
4.0
 40
4.0
 40
5.0
 40
5.0
 40
5.0
 40
5.0
 10
7.051937527126736
 20
-9.217553880479601
 30
0.0
 10
6.840336269802517
 20
-9.042655097113714
 30
0.0
 10
6.769297281901041
 20
-8.71580081515842
 30
0.0
 10
6.870956844753689
 20
-8.384879218207464
 30
0.0
 10
6.972604115804036
 20
-8.053951687282986
 30
0.0
 10
7.214883592393663
 20
-7.823348999023438
 30
0.0
 10
7.488184611002604
 20
-7.797403971354166
 30
0.0
 10
7.505363464355469
 20
-7.7957763671875
 30
0.0
 10
7.523644341362846
 20
-7.794827779134114
 30
0.0
 10
7.543087429470486
 20
-7.794827779134114
 30
0.0
 10
7.812837388780381
 20
-7.794827779134114
 30
0.0
 10
8.296350267198351
 20
-7.975774976942274
 30
0.0
 10
8.871003892686632
 20
-8.999268425835503
 30
0.0
 10
7.745231628417969
 20
-9.56141832139757
 30
0.0
 10
7.249729580349392
 20
-9.381067064073351
 30
0.0
 10
7.051937527126736
 20
-9.217553880479601
 30
0.0
  0
SPLINE
  5
49
330
1F
100
AcDbEntity
  8
Layer 1
370
     0
100
AcDbSpline
210
0.0
220
0.0
230
1.0
 70
    11
 71
     3
 72
    20
 73
    16
 74
     0
 42
0.0000000001
 43
0.0000000001
 12
1.0
 22
0.0
 32
0.0
 13
1.0
 23
0.0
 33
0.0
 40
0.0
 40
0.0
 40
0.0
 40
0.0
 40
1.0
 40
1.0
 40
1.0
 40
2.0
 40
2.0
 40
2.0
 40
3.0
 40
3.0
 40
3.0
 40
4.0
 40
4.0
 40
4.0
 40
5.0
 40
5.0
 40
5.0
 40
5.0
 10
9.377902560763888
 20
-10.59256150987413
 30
0.0
 10
9.362799750434027
 20
-10.88351270887587
 30
0.0
 10
9.245901319715712
 20
-11.09501817491319
 30
0.0
 10
9.039848327636719
 20
-11.20423550075955
 30
0.0
 10
8.659004211425781
 20
-11.40608978271484
 30
0.0
 10
8.065316094292534
 20
-11.22371164957682
 30
0.0
 10
7.863462660047743
 20
-10.84286159939236
 30
0.0
 10
7.754258897569444
 20
-10.63680352105035
 30
0.0
 10
7.776254442003038
 20
-10.39613935682509
 30
0.0
 10
7.927080790201822
 20
-10.14689042833116
 30
0.0
 10
8.111935933430988
 20
-9.841417100694445
 30
0.0
 10
8.472282409667969
 20
-9.537090725368923
 30
0.0
 10
8.999181111653645
 20
-9.241119384765625
 30
0.0
 10
9.269068400065104
 20
-9.781850179036457
 30
0.0
 10
9.396422492133246
 20
-10.23600006103516
 30
0.0
 10
9.377902560763888
 20
-10.59256150987413
 30
0.0
  0
SPLINE
  5
4A
330
1F
100
AcDbEntity
  8
Layer 1
370
     0
100
AcDbSpline
210
0.0
220
0.0
230
1.0
 70
    11
 71
     3
 72
    14
 73
    10
 74
     0
 42
0.0000000001
 43
0.0000000001
 12
1.0
 22
0.0
 32
0.0
 13
1.0
 23
0.0
 33
0.0
 40
0.0
 40
0.0
 40
0.0
 40
0.0
 40
1.0
 40
1.0
 40
1.0
 40
2.0
 40
2.0
 40
2.0
 40
3.0
 40
3.0
 40
3.0
 40
3.0
 10
10.84278445773654
 20
-10.2486572265625
 30
0.0
 10
10.37512376573351
 20
-10.49649641248915
 30
0.0
 10
9.782144334581163
 20
-10.07295566134983
 30
0.0
 10
9.241204155815971
 20
-9.112977769639757
 30
0.0
 10
10.22777472601996
 20
-8.622232225206163
 30
0.0
 10
10.95630306667752
 20
-8.604651557074652
 30
0.0
 10
11.2041515774197
 20
-9.072281731499565
 30
0.0
 10
11.406005859375
 20
-9.453126695421007
 30
0.0
 10
11.22362942165799
 20
-10.0468029446072
 30
0.0
 10
10.84278445773654
 20
-10.2486572265625
 30
0.0
  0
SPLINE
  5
4B
330
1F
100
AcDbEntity
  8
Layer 1
370
     0
100
AcDbSpline
210
0.0
220
0.0
230
1.0
 70
    11
 71
     3
 72
   143
 73
   139
 74
     0
 42
0.0000000001
 43
0.0000000001
 12
1.0
 22
0.0
 32
0.0
 13
1.0
 23
0.0
 33
0.0
 40
0.0
 40
0.0
 40
0.0
 40
0.0
 40
1.0
 40
1.0
 40
1.0
 40
2.0
 40
2.0
 40
2.0
 40
3.0
 40
3.0
 40
3.0
 40
4.0
 40
4.0
 40
4.0
 40
5.0
 40
5.0
 40
5.0
 40
6.0
 40
6.0
 40
6.0
 40
7.0
 40
7.0
 40
7.0
 40
8.0
 40
8.0
 40
8.0
 40
9.0
 40
9.0
 40
9.0
 40
10.0
 40
10.0
 40
10.0
 40
11.0
 40
11.0
 40
11.0
 40
12.0
 40
12.0
 40
12.0
 40
13.0
 40
13.0
 40
13.0
 40
14.0
 40
14.0
 40
14.0
 40
15.0
 40
15.0
 40
15.0
 40
16.0
 40
16.0
 40
16.0
 40
17.0
 40
17.0
 40
17.0
 40
18.0
 40
18.0
 40
18.0
 40
19.0
 40
19.0
 40
19.0
 40
20.0
 40
20.0
 40
20.0
 40
21.0
 40
21.0
 40
21.0
 40
22.0
 40
22.0
 40
22.0
 40
23.0
 40
23.0
 40
23.0
 40
24.0
 40
24.0
 40
24.0
 40
25.0
 40
25.0
 40
25.0
 40
26.0
 40
26.0
 40
26.0
 40
27.0
 40
27.0
 40
27.0
 40
28.0
 40
28.0
 40
28.0
 40
29.0
 40
29.0
 40
29.0
 40
30.0
 40
30.0
 40
30.0
 40
31.0
 40
31.0
 40
31.0
 40
32.0
 40
32.0
 40
32.0
 40
33.0
 40
33.0
 40
33.0
 40
34.0
 40
34.0
 40
34.0
 40
35.0
 40
35.0
 40
35.0
 40
36.0
 40
36.0
 40
36.0
 40
37.0
 40
37.0
 40
37.0
 40
38.0
 40
38.0
 40
38.0
 40
39.0
 40
39.0
 40
39.0
 40
40.0
 40
40.0
 40
40.0
 40
41.0
 40
41.0
 40
41.0
 40
42.0
 40
42.0
 40
42.0
 40
43.0
 40
43.0
 40
43.0
 40
44.0
 40
44.0
 40
44.0
 40
45.0
 40
45.0
 40
45.0
 40
46.0
 40
46.0
 40
46.0
 40
46.0
 10
5.441573672824435
 20
-2.976820839775933
 30
0.0
 10
5.431108262803819
 20
-2.927738825480143
 30
0.0
 10
5.392193264431423
 20
-2.873547236124674
 30
0.0
 10
5.322540283203125
 20
-2.815145916408963
 30
0.0
 10
5.062777625189887
 20
-2.597151438395182
 30
0.0
 10
3.339516745673285
 20
-3.005920834011502
 30
0.0
 10
3.10699717203776
 20
-3.062361187405056
 30
0.0
 10
3.107470830281575
 20
-3.05421257019043
 30
0.0
 10
3.107754177517361
 20
-3.045973671807183
 30
0.0
 10
3.107754177517361
 20
-3.037629233466254
 30
0.0
 10
3.107754177517361
 20
-3.018369462754991
 30
0.0
 10
3.10644170973036
 20
-2.999584833780924
 30
0.0
 10
3.103977839152018
 20
-2.981449974907769
 30
0.0
 10
3.218904283311632
 20
-2.953236050075955
 30
0.0
 10
4.301304287380642
 20
-2.682726330227322
 30
0.0
 10
4.749822404649522
 20
-2.393638822767469
 30
0.0
 10
5.105350070529513
 20
-2.16447639465332
 30
0.0
 10
5.261251661512587
 20
-1.971827612982856
 30
0.0
 10
5.167784796820746
 20
-1.853638754950629
 30
0.0
 10
5.136626349555121
 20
-1.814362419976128
 30
0.0
 10
5.077625274658203
 20
-1.783326254950629
 30
0.0
 10
4.989267985026041
 20
-1.761854065789117
 30
0.0
 10
4.651777903238932
 20
-1.679965125189887
 30
0.0
 10
3.231038835313585
 20
-2.868355433146159
 30
0.0
 10
3.103170818752713
 20
-2.976055569118924
 30
0.0
 10
3.088354110717773
 20
-2.877069473266602
 30
0.0
 10
3.038656870524088
 20
-2.798652860853407
 30
0.0
 10
2.975080490112305
 20
-2.773575041029188
 30
0.0
 10
2.96396107143826
 20
-2.519941753811306
 30
0.0
 10
2.910899904039171
 20
-1.548740280999078
 30
0.0
 10
2.735323588053385
 20
-1.09356255001492
 30
0.0
 10
2.710002687242296
 20
-1.027820905049642
 30
0.0
 10
2.684498680962456
 20
-0.9676736195882161
 30
0.0
 10
2.658997217814127
 20
-0.9134208891126844
 30
0.0
 10
2.480480617947049
 20
-0.5337736341688368
 30
0.0
 10
2.302445729573567
 20
-0.4434931013319227
 30
0.0
 10
2.166154225667317
 20
-0.7311139636569552
 30
0.0
 10
2.028865390353733
 20
-1.020747290717231
 30
0.0
 10
2.763623555501302
 20
-2.433965471055772
 30
0.0
 10
2.940022362603081
 20
-2.76544443766276
 30
0.0
 10
2.937125100029839
 20
-2.765226364135742
 30
0.0
 10
2.934212578667534
 20
-2.765102810329861
 30
0.0
 10
2.931282043457031
 20
-2.765102810329861
 30
0.0
 10
2.883213890923394
 20
-2.765102810329861
 30
0.0
 10
2.839651531643338
 20
-2.794852786593967
 30
0.0
 10
2.807819578382704
 20
-2.843022240532769
 30
0.0
 10
2.692354202270508
 20
-2.590269512600369
 30
0.0
 10
2.290666792127821
 20
-1.738899972703722
 30
0.0
 10
1.964659796820746
 20
-1.390026410420736
 30
0.0
 10
1.579659779866536
 20
-0.9780195024278429
 30
0.0
 10
1.321568171183268
 20
-0.9035583072238498
 30
0.0
 10
1.300037595960829
 20
-1.266665352715386
 30
0.0
 10
1.29871400197347
 20
-1.28927919599745
 30
0.0
 10
1.304065386454264
 20
-1.315743128458659
 30
0.0
 10
1.31429311964247
 20
-1.345094468858507
 30
0.0
 10
1.450608359442817
 20
-1.735172271728516
 30
0.0
 10
2.543066660563151
 20
-2.666223737928602
 30
0.0
 10
2.790445963541667
 20
-2.873490227593316
 30
0.0
 10
2.778732087877061
 20
-2.897417916191948
 30
0.0
 10
2.76953485276964
 20
-2.924427668253581
 30
0.0
 10
2.763413959079319
 20
-2.953576405843099
 30
0.0
 10
2.722244474622938
 20
-2.919329113430447
 30
0.0
 10
1.819087558322483
 20
-2.170755598280165
 30
0.0
 10
1.303287612067328
 20
-1.977059682210286
 30
0.0
 10
0.775436242421468
 20
-1.778931935628255
 30
0.0
 10
0.511513974931505
 20
-1.826630486382378
 30
0.0
 10
0.6535209549797906
 20
-2.161529117160373
 30
0.0
 10
0.7929404046800401
 20
-2.490605460272895
 30
0.0
 10
2.697066836886936
 20
-2.93901252746582
 30
0.0
 10
2.763212627834744
 20
-2.954499986436632
 30
0.0
 10
2.759011162651909
 20
-2.974755605061849
 30
0.0
 10
2.756329218546549
 20
-2.996045854356554
 30
0.0
 10
2.755316840277778
 20
-3.018051359388563
 30
0.0
 10
2.521478017171224
 20
-2.970950020684136
 30
0.0
 10
1.54786131117079
 20
-2.784829033745659
 30
0.0
 10
1.057827949523926
 20
-2.847320768568251
 30
0.0
 10
0.6383029619852701
 20
-2.900852627224392
 30
0.0
 10
0.4143751462300618
 20
-3.00767347547743
 30
0.0
 10
0.4476988050672743
 20
-3.154492908053928
 30
0.0
 10
0.4588849279615614
 20
-3.203392876519097
 30
0.0
 10
0.4985821512010362
 20
-3.256923463609483
 30
0.0
 10
0.5691321690877278
 20
-3.314363691541883
 30
0.0
 10
0.8237835566202799
 20
-3.521919250488281
 30
0.0
 10
2.443432278103299
 20
-3.121524810791016
 30
0.0
 10
2.754883660210503
 20
-3.041992823282877
 30
0.0
 10
2.755167007446289
 20
-3.069841384887695
 30
0.0
 10
2.758149041069878
 20
-3.09664429558648
 30
0.0
 10
2.763458675808377
 20
-3.121821933322483
 30
0.0
 10
2.573132197062174
 20
-3.172214931911892
 30
0.0
 10
1.571758694118923
 20
-3.445589913262261
 30
0.0
 10
1.147746192084418
 20
-3.727633158365885
 30
0.0
 10
0.7956461906433105
 20
-3.961844126383463
 30
0.0
 10
0.6426337030198839
 20
-4.156781938340929
 30
0.0
 10
0.7376656002468532
 20
-4.273524814181857
 30
0.0
 10
0.7694211535983615
 20
-4.312440236409505
 30
0.0
 10
0.8288475672403971
 20
-4.342574649386935
 30
0.0
 10
0.9175628026326497
 20
-4.36278322007921
 30
0.0
 10
1.243839157952203
 20
-4.436993069118923
 30
0.0
 10
2.558972676595052
 20
-3.317244211832682
 30
0.0
 10
2.767186482747396
 20
-3.137716505262587
 30
0.0
 10
2.79126845465766
 20
-3.231423483954535
 30
0.0
 10
2.848154491848416
 20
-3.299292882283528
 30
0.0
 10
2.916085137261284
 20
-3.308186001247829
 30
0.0
 10
2.929100460476346
 20
-3.537615246242947
 30
0.0
 10
2.995204501681858
 20
-4.537037319607204
 30
0.0
 10
3.180832333034939
 20
-4.998476240370008
 30
0.0
 10
3.207115597195095
 20
-5.063916524251302
 30
0.0
 10
3.233522627088758
 20
-5.123642815483941
 30
0.0
 10
3.259744856092665
 20
-5.177533043755425
 30
0.0
 10
3.443735122680664
 20
-5.554595523410373
 30
0.0
 10
3.623030768500434
 20
-5.642348395453559
 30
0.0
 10
3.755175272623698
 20
-5.352739969889322
 30
0.0
 10
3.891323937310113
 20
-5.054417928059896
 30
0.0
 10
3.098168267144097
 20
-3.593844095865885
 30
0.0
 10
2.940529505411784
 20
-3.308880276150173
 30
0.0
 10
2.988782246907552
 20
-3.305062188042534
 30
0.0
 10
3.031887902153863
 20
-3.271516376071506
 30
0.0
 10
3.062253104315864
 20
-3.219844182332356
 30
0.0
 10
3.148833592732747
 20
-3.419078826904297
 30
0.0
 10
3.561940511067708
 20
-4.347487131754557
 30
0.0
 10
3.899350484212239
 20
-4.719274732801649
 30
0.0
 10
4.27839618259006
 20
-5.136755201551649
 30
0.0
 10
4.535403357611762
 20
-5.214945475260416
 30
0.0
 10
4.562107510036892
 20
-4.852198282877604
 30
0.0
 10
4.563790639241536
 20
-4.829522026909722
 30
0.0
 10
4.558859083387587
 20
-4.802998436821832
 30
0.0
 10
4.548996395534939
 20
-4.773585849338107
 30
0.0
 10
4.413475460476345
 20
-4.366752624511719
 30
0.0
 10
3.256996366712782
 20
-3.362847010294596
 30
0.0
 10
3.071139441596137
 20
-3.203392876519097
 30
0.0
 10
3.089510175916883
 20
-3.166702694363064
 30
0.0
 10
3.101903279622396
 20
-3.122558169894748
 30
0.0
 10
3.106115765041775
 20
-3.074313693576389
 30
0.0
 10
3.279636594984266
 20
-3.11250114440918
 30
0.0
 10
4.314757453070746
 20
-3.333005269368489
 30
0.0
 10
4.827112833658854
 20
-3.275147120157877
 30
0.0
 10
5.247298770480685
 20
-3.227633370293511
 30
0.0
 10
5.472847408718533
 20
-3.124120924207899
 30
0.0
 10
5.441573672824435
 20
-2.976820839775933
 30
0.0
  0
SPLINE
  5
4C
330
1F
100
AcDbEntity
  8
Layer 1
370
     0
100
AcDbSpline
210
0.0
220
0.0
230
1.0
 70
    11
 71
     3
 72
    11
 73
     7
 74
     0
 42
0.0000000001
 43
0.0000000001
 12
1.0
 22
0.0
 32
0.0
 13
1.0
 23
0.0
 33
0.0
 40
0.0
 40
0.0
 40
0.0
 40
0.0
 40
1.0
 40
1.0
 40
1.0
 40
2.0
 40
2.0
 40
2.0
 40
2.0
 10
4.555670844184028
 20
-2.206758287217882
 30
0.0
 10
4.406023661295572
 20
-2.5189208984375
 30
0.0
 10
3.299141777886284
 20
-2.880222108629015
 30
0.0
 10
3.299141777886284
 20
-2.880222108629015
 30
0.0
 10
3.534194522433811
 20
-2.569565243191189
 30
0.0
 10
4.555670844184028
 20
-2.206758287217882
 30
0.0
 10
4.555670844184028
 20
-2.206758287217882
 30
0.0
  0
SPLINE
  5
4D
330
1F
100
AcDbEntity
  8
Layer 1
370
     0
100
AcDbSpline
210
0.0
220
0.0
230
1.0
 70
    11
 71
     3
 72
    14
 73
    10
 74
     0
 42
0.0000000001
 43
0.0000000001
 12
1.0
 22
0.0
 32
0.0
 13
1.0
 23
0.0
 33
0.0
 40
0.0
 40
0.0
 40
0.0
 40
0.0
 40
1.0
 40
1.0
 40
1.0
 40
2.0
 40
2.0
 40
2.0
 40
3.0
 40
3.0
 40
3.0
 40
3.0
 10
2.513023588392469
 20
-1.246334711710612
 30
0.0
 10
2.581890318128798
 20
-1.298781924777561
 30
0.0
 10
2.64203749762641
 20
-1.410113864474826
 30
0.0
 10
2.692861133151584
 20
-1.548091676500108
 30
0.0
 10
2.845212512546115
 20
-1.962143156263563
 30
0.0
 10
2.917572233412001
 20
-2.613594479031033
 30
0.0
 10
2.917572233412001
 20
-2.613594479031033
 30
0.0
 10
2.660981920030382
 20
-2.320377773708767
 30
0.0
 10
2.513023588392469
 20
-1.246334711710612
 30
0.0
 10
2.513023588392469
 20
-1.246334711710612
 30
0.0
  0
SPLINE
  5
4E
330
1F
100
AcDbEntity
  8
Layer 1
370
     0
100
AcDbSpline
210
0.0
220
0.0
230
1.0
 70
    11
 71
     3
 72
    11
 73
     7
 74
     0
 42
0.0000000001
 43
0.0000000001
 12
1.0
 22
0.0
 32
0.0
 13
1.0
 23
0.0
 33
0.0
 40
0.0
 40
0.0
 40
0.0
 40
0.0
 40
1.0
 40
1.0
 40
1.0
 40
2.0
 40
2.0
 40
2.0
 40
2.0
 10
1.815379248725043
 20
-1.61479303571913
 30
0.0
 10
2.149254269070096
 20
-1.706398646036784
 30
0.0
 10
2.701944563123915
 20
-2.730820761786567
 30
0.0
 10
2.701944563123915
 20
-2.730820761786567
 30
0.0
 10
2.35435422261556
 20
-2.554890314737956
 30
0.0
 10
1.815379248725043
 20
-1.61479303571913
 30
0.0
 10
1.815379248725043
 20
-1.61479303571913
 30
0.0
  0
SPLINE
  5
4F
330
1F
100
AcDbEntity
  8
Layer 1
370
     0
100
AcDbSpline
210
0.0
220
0.0
230
1.0
 70
    11
 71
     3
 72
    11
 73
     7
 74
     0
 42
0.0000000001
 43
0.0000000001
 12
1.0
 22
0.0
 32
0.0
 13
1.0
 23
0.0
 33
0.0
 40
0.0
 40
0.0
 40
0.0
 40
0.0
 40
1.0
 40
1.0
 40
1.0
 40
2.0
 40
2.0
 40
2.0
 40
2.0
 10
1.269665294223361
 20
-2.244952731662326
 30
0.0
 10
1.609493043687608
 20
-2.178851233588325
 30
0.0
 10
2.558551364474826
 20
-2.851715299818251
 30
0.0
 10
2.558551364474826
 20
-2.851715299818251
 30
0.0
 10
2.168979220920139
 20
-2.848345862494575
 30
0.0
 10
1.269665294223361
 20
-2.244952731662326
 30
0.0
 10
1.269665294223361
 20
-2.244952731662326
 30
0.0
  0
SPLINE
  5
50
330
1F
100
AcDbEntity
  8
Layer 1
370
     0
100
AcDbSpline
210
0.0
220
0.0
230
1.0
 70
    11
 71
     3
 72
    11
 73
     7
 74
     0
 42
0.0000000001
 43
0.0000000001
 12
1.0
 22
0.0
 32
0.0
 13
1.0
 23
0.0
 33
0.0
 40
0.0
 40
0.0
 40
0.0
 40
0.0
 40
1.0
 40
1.0
 40
1.0
 40
2.0
 40
2.0
 40
2.0
 40
2.0
 10
1.152740266587999
 20
-3.100001441107856
 30
0.0
 10
1.422318034701877
 20
-2.8828125
 30
0.0
 10
2.576597213745117
 20
-3.034319559733073
 30
0.0
 10
2.576597213745117
 20
-3.034319559733073
 30
0.0
 10
2.230573654174805
 20
-3.213437398274739
 30
0.0
 10
1.152740266587999
 20
-3.100001441107856
 30
0.0
 10
1.152740266587999
 20
-3.100001441107856
 30
0.0
  0
SPLINE
  5
51
330
1F
100
AcDbEntity
  8
Layer 1
370
     0
100
AcDbSpline
210
0.0
220
0.0
230
1.0
 70
    11
 71
     3
 72
    11
 73
     7
 74
     0
 42
0.0000000001
 43
0.0000000001
 12
1.0
 22
0.0
 32
0.0
 13
1.0
 23
0.0
 33
0.0
 40
0.0
 40
0.0
 40
0.0
 40
0.0
 40
1.0
 40
1.0
 40
1.0
 40
2.0
 40
2.0
 40
2.0
 40
2.0
 10
1.34466807047526
 20
-3.911683400472005
 30
0.0
 10
1.489801406860352
 20
-3.597354041205512
 30
0.0
 10
2.591331905788846
 20
-3.220115237765842
 30
0.0
 10
2.591331905788846
 20
-3.220115237765842
 30
0.0
 10
2.360790252685547
 20
-3.534262551201714
 30
0.0
 10
1.34466807047526
 20
-3.911683400472005
 30
0.0
 10
1.34466807047526
 20
-3.911683400472005
 30
0.0
  0
SPLINE
  5
52
330
1F
100
AcDbEntity
  8
Layer 1
370
     0
100
AcDbSpline
210
0.0
220
0.0
230
1.0
 70
    11
 71
     3
 72
    14
 73
    10
 74
     0
 42
0.0000000001
 43
0.0000000001
 12
1.0
 22
0.0
 32
0.0
 13
1.0
 23
0.0
 33
0.0
 40
0.0
 40
0.0
 40
0.0
 40
0.0
 40
1.0
 40
1.0
 40
1.0
 40
2.0
 40
2.0
 40
2.0
 40
3.0
 40
3.0
 40
3.0
 40
3.0
 10
3.400970882839626
 20
-4.842576344807942
 30
0.0
 10
3.331380632188585
 20
-4.79109149509006
 30
0.0
 10
3.269551383124457
 20
-4.680661095513238
 30
0.0
 10
3.216798570421007
 20
-4.543405320909288
 30
0.0
 10
3.058491600884331
 20
-4.131638844807942
 30
0.0
 10
2.976813846164279
 20
-3.481331719292534
 30
0.0
 10
2.976813846164279
 20
-3.481331719292534
 30
0.0
 10
3.23761240641276
 20
-3.770759582519531
 30
0.0
 10
3.400970882839626
 20
-4.842576344807942
 30
0.0
 10
3.400970882839626
 20
-4.842576344807942
 30
0.0
  0
SPLINE
  5
53
330
1F
100
AcDbEntity
  8
Layer 1
370
     0
100
AcDbSpline
210
0.0
220
0.0
230
1.0
 70
    11
 71
     3
 72
    11
 73
     7
 74
     0
 42
0.0000000001
 43
0.0000000001
 12
1.0
 22
0.0
 32
0.0
 13
1.0
 23
0.0
 33
0.0
 40
0.0
 40
0.0
 40
0.0
 40
0.0
 40
1.0
 40
1.0
 40
1.0
 40
2.0
 40
2.0
 40
2.0
 40
2.0
 10
4.051879035101996
 20
-4.496673583984375
 30
0.0
 10
3.719387478298611
 20
-4.400195651584201
 30
0.0
 10
3.18143187628852
 20
-3.367956797281901
 30
0.0
 10
3.18143187628852
 20
-3.367956797281901
 30
0.0
 10
3.526555591159397
 20
-3.548817952473958
 30
0.0
 10
4.051879035101996
 20
-4.496673583984375
 30
0.0
 10
4.051879035101996
 20
-4.496673583984375
 30
0.0
  0
SPLINE
  5
54
330
1F
100
AcDbEntity
  8
Layer 1
370
     0
100
AcDbSpline
210
0.0
220
0.0
230
1.0
 70
    11
 71
     3
 72
    17
 73
    13
 74
     0
 42
0.0000000001
 43
0.0000000001
 12
1.0
 22
0.0
 32
0.0
 13
1.0
 23
0.0
 33
0.0
 40
0.0
 40
0.0
 40
0.0
 40
0.0
 40
1.0
 40
1.0
 40
1.0
 40
2.0
 40
2.0
 40
2.0
 40
3.0
 40
3.0
 40
3.0
 40
4.0
 40
4.0
 40
4.0
 40
4.0
 10
3.007549921671549
 20
-2.846963882446289
 30
0.0
 10
3.025594287448459
 20
-2.846963882446289
 30
0.0
 10
3.040330462985569
 20
-2.874270757039388
 30
0.0
 10
3.040330462985569
 20
-2.907830556233724
 30
0.0
 10
3.040330462985569
 20
-2.941334618462456
 30
0.0
 10
3.02559577094184
 20
-2.968699985080295
 30
0.0
 10
3.007549921671549
 20
-2.968699985080295
 30
0.0
 10
2.98950555589464
 20
-2.968699985080295
 30
0.0
 10
2.97476938035753
 20
-2.941333346896701
 30
0.0
 10
2.97476938035753
 20
-2.907830556233724
 30
0.0
 10
2.97476938035753
 20
-2.874270757039388
 30
0.0
 10
2.98950555589464
 20
-2.846963882446289
 30
0.0
 10
3.007549921671549
 20
-2.846963882446289
 30
0.0
  0
SPLINE
  5
55
330
1F
100
AcDbEntity
  8
Layer 1
370
     0
100
AcDbSpline
210
0.0
220
0.0
230
1.0
 70
    11
 71
     3
 72
    17
 73
    13
 74
     0
 42
0.0000000001
 43
0.0000000001
 12
1.0
 22
0.0
 32
0.0
 13
1.0
 23
0.0
 33
0.0
 40
0.0
 40
0.0
 40
0.0
 40
0.0
 40
1.0
 40
1.0
 40
1.0
 40
2.0
 40
2.0
 40
2.0
 40
3.0
 40
3.0
 40
3.0
 40
4.0
 40
4.0
 40
4.0
 40
4.0
 10
2.845033433702257
 20
-2.936822255452474
 30
0.0
 10
2.86307504442003
 20
-2.936822255452474
 30
0.0
 10
2.877751456366645
 20
-2.964187622070312
 30
0.0
 10
2.877751456366645
 20
-2.99775144788954
 30
0.0
 10
2.877751456366645
 20
-3.031314002143012
 30
0.0
 10
2.86307504442003
 20
-3.058619605170356
 30
0.0
 10
2.845033433702257
 20
-3.058619605170356
 30
0.0
 10
2.826929304334852
 20
-3.058619605170356
 30
0.0
 10
2.812854342990451
 20
-3.031312730577257
 30
0.0
 10
2.812854342990451
 20
-2.99775144788954
 30
0.0
 10
2.81285285949707
 20
-2.964190377129448
 30
0.0
 10
2.826929092407227
 20
-2.936822255452474
 30
0.0
 10
2.845033433702257
 20
-2.936822255452474
 30
0.0
  0
SPLINE
  5
56
330
1F
100
AcDbEntity
  8
Layer 1
370
     0
100
AcDbSpline
210
0.0
220
0.0
230
1.0
 70
    11
 71
     3
 72
    17
 73
    13
 74
     0
 42
0.0000000001
 43
0.0000000001
 12
1.0
 22
0.0
 32
0.0
 13
1.0
 23
0.0
 33
0.0
 40
0.0
 40
0.0
 40
0.0
 40
0.0
 40
1.0
 40
1.0
 40
1.0
 40
2.0
 40
2.0
 40
2.0
 40
3.0
 40
3.0
 40
3.0
 40
4.0
 40
4.0
 40
4.0
 40
4.0
 10
2.861330456203885
 20
-3.241166644626194
 30
0.0
 10
2.843288845486111
 20
-3.241166644626194
 30
0.0
 10
2.829212400648329
 20
-3.213859770033094
 30
0.0
 10
2.829212400648329
 20
-3.180298487345377
 30
0.0
 10
2.829212400648329
 20
-3.146792941623264
 30
0.0
 10
2.843349880642361
 20
-3.120330386691623
 30
0.0
 10
2.861330456203885
 20
-3.120330386691623
 30
0.0
 10
2.879374821980794
 20
-3.120330386691623
 30
0.0
 10
2.894110997517903
 20
-3.1467956966824
 30
0.0
 10
2.894110997517903
 20
-3.180298487345377
 30
0.0
 10
2.894109725952148
 20
-3.21386104159885
 30
0.0
 10
2.87937503390842
 20
-3.241166644626194
 30
0.0
 10
2.861330456203885
 20
-3.241166644626194
 30
0.0
  0
SPLINE
  5
57
330
1F
100
AcDbEntity
  8
Layer 1
370
     0
100
AcDbSpline
210
0.0
220
0.0
230
1.0
 70
    11
 71
     3
 72
    17
 73
    13
 74
     0
 42
0.0000000001
 43
0.0000000001
 12
1.0
 22
0.0
 32
0.0
 13
1.0
 23
0.0
 33
0.0
 40
0.0
 40
0.0
 40
0.0
 40
0.0
 40
1.0
 40
1.0
 40
1.0
 40
2.0
 40
2.0
 40
2.0
 40
3.0
 40
3.0
 40
3.0
 40
4.0
 40
4.0
 40
4.0
 40
4.0
 10
2.880279117160373
 20
-2.855143017239041
 30
0.0
 10
2.880279117160373
 20
-2.821580462985569
 30
0.0
 10
2.895013809204102
 20
-2.794273588392469
 30
0.0
 10
2.913059658474392
 20
-2.794273588392469
 30
0.0
 10
2.931163787841797
 20
-2.794273588392469
 30
0.0
 10
2.945840199788411
 20
-2.821580462985569
 30
0.0
 10
2.945840199788411
 20
-2.855143017239041
 30
0.0
 10
2.945840199788411
 20
-2.888644324408637
 30
0.0
 10
2.931105507744683
 20
-2.916009691026475
 30
0.0
 10
2.913059658474392
 20
-2.916009691026475
 30
0.0
 10
2.895013809204102
 20
-2.916009691026475
 30
0.0
 10
2.880279117160373
 20
-2.888644536336263
 30
0.0
 10
2.880279117160373
 20
-2.855143017239041
 30
0.0
  0
SPLINE
  5
58
330
1F
100
AcDbEntity
  8
Layer 1
370
     0
100
AcDbSpline
210
0.0
220
0.0
230
1.0
 70
    11
 71
     3
 72
    17
 73
    13
 74
     0
 42
0.0000000001
 43
0.0000000001
 12
1.0
 22
0.0
 32
0.0
 13
1.0
 23
0.0
 33
0.0
 40
0.0
 40
0.0
 40
0.0
 40
0.0
 40
1.0
 40
1.0
 40
1.0
 40
2.0
 40
2.0
 40
2.0
 40
3.0
 40
3.0
 40
3.0
 40
4.0
 40
4.0
 40
4.0
 40
4.0
 10
2.939462449815538
 20
-3.094887415568034
 30
0.0
 10
2.921418084038628
 20
-3.094887415568034
 30
0.0
 10
2.906681908501519
 20
-3.067580540974935
 30
0.0
 10
2.906681908501519
 20
-3.034019258287218
 30
0.0
 10
2.906681908501519
 20
-3.00057750278049
 30
0.0
 10
2.921416600545247
 20
-2.973151101006402
 30
0.0
 10
2.939462449815538
 20
-2.973151101006402
 30
0.0
 10
2.957566579182942
 20
-2.973151101006402
 30
0.0
 10
2.972242991129557
 20
-3.000517739189995
 30
0.0
 10
2.972242991129557
 20
-3.034019258287218
 30
0.0
 10
2.972242991129557
 20
-3.067582024468316
 30
0.0
 10
2.957566579182942
 20
-3.094887415568034
 30
0.0
 10
2.939462449815538
 20
-3.094887415568034
 30
0.0
  0
SPLINE
  5
59
330
1F
100
AcDbEntity
  8
Layer 1
370
     0
100
AcDbSpline
210
0.0
220
0.0
230
1.0
 70
    11
 71
     3
 72
    17
 73
    13
 74
     0
 42
0.0000000001
 43
0.0000000001
 12
1.0
 22
0.0
 32
0.0
 13
1.0
 23
0.0
 33
0.0
 40
0.0
 40
0.0
 40
0.0
 40
0.0
 40
1.0
 40
1.0
 40
1.0
 40
2.0
 40
2.0
 40
2.0
 40
3.0
 40
3.0
 40
3.0
 40
4.0
 40
4.0
 40
4.0
 40
4.0
 10
3.001236173841688
 20
-3.250247319539388
 30
0.0
 10
2.983191808064778
 20
-3.250247319539388
 30
0.0
 10
2.968455632527669
 20
-3.222940444946289
 30
0.0
 10
2.968455632527669
 20
-3.189379162258572
 30
0.0
 10
2.968455632527669
 20
-3.155818091498481
 30
0.0
 10
2.983250088161892
 20
-3.128511004977756
 30
0.0
 10
3.001236173841688
 20
-3.128511004977756
 30
0.0
 10
3.019277784559462
 20
-3.128511004977756
 30
0.0
 10
3.033412509494358
 20
-3.155817879570855
 30
0.0
 10
3.033412509494358
 20
-3.189379162258572
 30
0.0
 10
3.033412509494358
 20
-3.222940233018663
 30
0.0
 10
3.019277784559462
 20
-3.250247319539388
 30
0.0
 10
3.001236173841688
 20
-3.250247319539388
 30
0.0
  0
SPLINE
  5
5A
330
1F
100
AcDbEntity
  8
Layer 1
370
     0
100
AcDbSpline
210
0.0
220
0.0
230
1.0
 70
    11
 71
     3
 72
    17
 73
    13
 74
     0
 42
0.0000000001
 43
0.0000000001
 12
1.0
 22
0.0
 32
0.0
 13
1.0
 23
0.0
 33
0.0
 40
0.0
 40
0.0
 40
0.0
 40
0.0
 40
1.0
 40
1.0
 40
1.0
 40
2.0
 40
2.0
 40
2.0
 40
3.0
 40
3.0
 40
3.0
 40
4.0
 40
4.0
 40
4.0
 40
4.0
 10
3.049170811971028
 20
-3.115818023681641
 30
0.0
 10
3.031066682603624
 20
-3.115818023681641
 30
0.0
 10
3.016991721259223
 20
-3.088511149088542
 30
0.0
 10
3.016991721259223
 20
-3.054951349894206
 30
0.0
 10
3.016991721259223
 20
-3.021388795640733
 30
0.0
 10
3.031126446194119
 20
-2.994081921047635
 30
0.0
 10
3.049170811971028
 20
-2.994081921047635
 30
0.0
 10
3.067215177747938
 20
-2.994081921047635
 30
0.0
 10
3.081891589694553
 20
-3.021388795640733
 30
0.0
 10
3.081891589694553
 20
-3.054951349894206
 30
0.0
 10
3.081893073187934
 20
-3.08850966559516
 30
0.0
 10
3.067216661241319
 20
-3.115818023681641
 30
0.0
 10
3.049170811971028
 20
-3.115818023681641
 30
0.0
  0
SPLINE
  5
5B
330
1F
100
AcDbEntity
  8
Layer 1
370
     0
100
AcDbSpline
210
0.0
220
0.0
230
1.0
 70
    11
 71
     3
 72
    11
 73
     7
 74
     0
 42
0.0000000001
 43
0.0000000001
 12
1.0
 22
0.0
 32
0.0
 13
1.0
 23
0.0
 33
0.0
 40
0.0
 40
0.0
 40
0.0
 40
0.0
 40
1.0
 40
1.0
 40
1.0
 40
2.0
 40
2.0
 40
2.0
 40
2.0
 10
3.3111695183648
 20
-3.066258324517144
 30
0.0
 10
3.659781985812717
 20
-2.892193052503798
 30
0.0
 10
4.735809750027126
 20
-3.02108891805013
 30
0.0
 10
4.735809750027126
 20
-3.02108891805013
 30
0.0
 10
4.463162316216363
 20
-3.234488805135091
 30
0.0
 10
3.3111695183648
 20
-3.066258324517144
 30
0.0
 10
3.3111695183648
 20
-3.066258324517144
 30
0.0
  0
SPLINE
  5
5C
330
1F
100
AcDbEntity
  8
Layer 1
370
     0
100
AcDbSpline
210
0.0
220
0.0
230
1.0
 70
    11
 71
     3
 72
    17
 73
    13
 74
     0
 42
0.0000000001
 43
0.0000000001
 12
1.0
 22
0.0
 32
0.0
 13
1.0
 23
0.0
 33
0.0
 40
0.0
 40
0.0
 40
0.0
 40
0.0
 40
1.0
 40
1.0
 40
1.0
 40
2.0
 40
2.0
 40
2.0
 40
3.0
 40
3.0
 40
3.0
 40
4.0
 40
4.0
 40
4.0
 40
4.0
 10
4.367651197645399
 20
-1.626343091328939
 30
0.0
 10
4.560241275363498
 20
-1.331201447380914
 30
0.0
 10
4.636808183458116
 20
-1.115755610995822
 30
0.0
 10
4.579669104682075
 20
-1.01170285542806
 30
0.0
 10
4.545444064670138
 20
-0.9493904113769531
 30
0.0
 10
4.463405185275607
 20
-0.9267737070719401
 30
0.0
 10
4.329278733995226
 20
-0.9514347712198893
 30
0.0
 10
3.971523284912109
 20
-1.017295837402344
 30
0.0
 10
3.096508026123047
 20
-2.840769449869792
 30
0.0
 10
3.096508026123047
 20
-2.840769449869792
 30
0.0
 10
3.096508026123047
 20
-2.840769449869792
 30
0.0
 10
4.059579213460286
 20
-2.098615222507053
 30
0.0
 10
4.367651197645399
 20
-1.626343091328939
 30
0.0
  0
SPLINE
  5
5D
330
1F
100
AcDbEntity
  8
Layer 1
370
     0
100
AcDbSpline
210
0.0
220
0.0
230
1.0
 70
    11
 71
     3
 72
    11
 73
     7
 74
     0
 42
0.0000000001
 43
0.0000000001
 12
1.0
 22
0.0
 32
0.0
 13
1.0
 23
0.0
 33
0.0
 40
0.0
 40
0.0
 40
0.0
 40
0.0
 40
1.0
 40
1.0
 40
1.0
 40
2.0
 40
2.0
 40
2.0
 40
2.0
 10
4.114250183105469
 20
-1.534738858540853
 30
0.0
 10
4.104987674289279
 20
-1.880823559231228
 30
0.0
 10
3.241579267713758
 20
-2.662131839328342
 30
0.0
 10
3.241579267713758
 20
-2.662131839328342
 30
0.0
 10
3.329515245225694
 20
-2.282605489095052
 30
0.0
 10
4.114250183105469
 20
-1.534738858540853
 30
0.0
 10
4.114250183105469
 20
-1.534738858540853
 30
0.0
  0
SPLINE
  5
5E
330
1F
100
AcDbEntity
  8
Layer 1
370
     0
100
AcDbSpline
210
0.0
220
0.0
230
1.0
 70
    11
 71
     3
 72
    14
 73
    10
 74
     0
 42
0.0000000001
 43
0.0000000001
 12
1.0
 22
0.0
 32
0.0
 13
1.0
 23
0.0
 33
0.0
 40
0.0
 40
0.0
 40
0.0
 40
0.0
 40
1.0
 40
1.0
 40
1.0
 40
2.0
 40
2.0
 40
2.0
 40
3.0
 40
3.0
 40
3.0
 40
3.0
 10
3.121706856621636
 20
-3.142884784274631
 30
0.0
 10
3.121706856621636
 20
-3.142884784274631
 30
0.0
 10
4.044120788574219
 20
-3.935922410753038
 30
0.0
 10
4.569081624348958
 20
-4.141683366563585
 30
0.0
 10
5.093984391954209
 20
-4.347507052951388
 30
0.0
 10
5.3586302863227
 20
-4.303599887424045
 30
0.0
 10
5.221555074055989
 20
-3.966655731201172
 30
0.0
 10
5.084419250488281
 20
-3.629715389675564
 30
0.0
 10
3.121706856621636
 20
-3.142884784274631
 30
0.0
 10
3.121706856621636
 20
-3.142884784274631
 30
0.0
  0
SPLINE
  5
5F
330
1F
100
AcDbEntity
  8
Layer 1
370
     0
100
AcDbSpline
210
0.0
220
0.0
230
1.0
 70
    11
 71
     3
 72
    11
 73
     7
 74
     0
 42
0.0000000001
 43
0.0000000001
 12
1.0
 22
0.0
 32
0.0
 13
1.0
 23
0.0
 33
0.0
 40
0.0
 40
0.0
 40
0.0
 40
0.0
 40
1.0
 40
1.0
 40
1.0
 40
2.0
 40
2.0
 40
2.0
 40
2.0
 10
3.326627731323242
 20
-3.249166700575087
 30
0.0
 10
3.716017829047309
 20
-3.258066601223415
 30
0.0
 10
4.606614006890191
 20
-3.874452802870008
 30
0.0
 10
4.606614006890191
 20
-3.874452802870008
 30
0.0
 10
4.265822092692057
 20
-3.935622321234809
 30
0.0
 10
3.326627731323242
 20
-3.249166700575087
 30
0.0
 10
3.326627731323242
 20
-3.249166700575087
 30
0.0
  0
SPLINE
  5
60
330
1F
100
AcDbEntity
  8
Layer 1
370
     0
100
AcDbSpline
210
0.0
220
0.0
230
1.0
 70
    11
 71
     3
 72
    17
 73
    13
 74
     0
 42
0.0000000001
 43
0.0000000001
 12
1.0
 22
0.0
 32
0.0
 13
1.0
 23
0.0
 33
0.0
 40
0.0
 40
0.0
 40
0.0
 40
0.0
 40
1.0
 40
1.0
 40
1.0
 40
2.0
 40
2.0
 40
2.0
 40
3.0
 40
3.0
 40
3.0
 40
4.0
 40
4.0
 40
4.0
 40
4.0
 10
3.639151255289713
 20
-1.124356905619303
 30
0.0
 10
3.672352684868706
 20
-0.8443707889980739
 30
0.0
 10
3.66170671251085
 20
-0.643422179751926
 30
0.0
 10
3.60619142320421
 20
-0.5394874678717719
 30
0.0
 10
3.550673378838433
 20
-0.4354944229125977
 30
0.0
 10
3.450892766316731
 20
-0.4281555281745063
 30
0.0
 10
3.305216471354167
 20
-0.5370819303724501
 30
0.0
 10
3.013924916585286
 20
-0.7548735936482747
 30
0.0
 10
3.03912607828776
 20
-2.777312384711371
 30
0.0
 10
3.03912607828776
 20
-2.777312384711371
 30
0.0
 10
3.03912607828776
 20
-2.777312384711371
 30
0.0
 10
3.572691599527995
 20
-1.684263865152995
 30
0.0
 10
3.639151255289713
 20
-1.124356905619303
 30
0.0
  0
SPLINE
  5
61
330
1F
100
AcDbEntity
  8
Layer 1
370
     0
100
AcDbSpline
210
0.0
220
0.0
230
1.0
 70
    11
 71
     3
 72
    11
 73
     7
 74
     0
 42
0.0000000001
 43
0.0000000001
 12
1.0
 22
0.0
 32
0.0
 13
1.0
 23
0.0
 33
0.0
 40
0.0
 40
0.0
 40
0.0
 40
0.0
 40
1.0
 40
1.0
 40
1.0
 40
2.0
 40
2.0
 40
2.0
 40
2.0
 10
3.371677822536892
 20
-1.155452728271484
 30
0.0
 10
3.516994476318359
 20
-1.469720840454102
 30
0.0
 10
3.09019300672743
 20
-2.552602767944336
 30
0.0
 10
3.09019300672743
 20
-2.552602767944336
 30
0.0
 10
3.000331878662109
 20
-2.173437542385525
 30
0.0
 10
3.371677822536892
 20
-1.155452728271484
 30
0.0
 10
3.371677822536892
 20
-1.155452728271484
 30
0.0
  0
SPLINE
  5
62
330
1F
100
AcDbEntity
  8
Layer 1
370
     0
100
AcDbSpline
210
0.0
220
0.0
230
1.0
 70
    11
 71
     3
 72
    17
 73
    13
 74
     0
 42
0.0000000001
 43
0.0000000001
 12
1.0
 22
0.0
 32
0.0
 13
1.0
 23
0.0
 33
0.0
 40
0.0
 40
0.0
 40
0.0
 40
0.0
 40
1.0
 40
1.0
 40
1.0
 40
2.0
 40
2.0
 40
2.0
 40
3.0
 40
3.0
 40
3.0
 40
4.0
 40
4.0
 40
4.0
 40
4.0
 10
1.541049957275391
 20
-4.489273495144314
 30
0.0
 10
1.352668020460341
 20
-4.787241617838541
 30
0.0
 10
1.279287444220649
 20
-5.003772311740451
 30
0.0
 10
1.337930467393663
 20
-5.106922149658203
 30
0.0
 10
1.373058213127984
 20
-5.168812221950954
 30
0.0
 10
1.455338795979818
 20
-5.190227508544922
 30
0.0
 10
1.58916515774197
 20
-5.163580576578775
 30
0.0
 10
1.94595824347602
 20
-5.092486063639322
 30
0.0
 10
2.79462899102105
 20
-3.256563822428385
 30
0.0
 10
2.79462899102105
 20
-3.256563822428385
 30
0.0
 10
2.79462899102105
 20
-3.256563822428385
 30
0.0
 10
1.842383278740777
 20
-4.01255120171441
 30
0.0
 10
1.541049957275391
 20
-4.489273495144314
 30
0.0
  0
SPLINE
  5
63
330
1F
100
AcDbEntity
  8
Layer 1
370
     0
100
AcDbSpline
210
0.0
220
0.0
230
1.0
 70
    11
 71
     3
 72
    11
 73
     7
 74
     0
 42
0.0000000001
 43
0.0000000001
 12
1.0
 22
0.0
 32
0.0
 13
1.0
 23
0.0
 33
0.0
 40
0.0
 40
0.0
 40
0.0
 40
0.0
 40
1.0
 40
1.0
 40
1.0
 40
2.0
 40
2.0
 40
2.0
 40
2.0
 10
1.795709821912977
 20
-4.577269236246744
 30
0.0
 10
1.800040351019965
 20
-4.231004079182942
 30
0.0
 10
2.651959737141927
 20
-3.437305450439453
 30
0.0
 10
2.651959737141927
 20
-3.437305450439453
 30
0.0
 10
2.569620768229167
 20
-3.818154229058159
 30
0.0
 10
1.795709821912977
 20
-4.577269236246744
 30
0.0
 10
1.795709821912977
 20
-4.577269236246744
 30
0.0
  0
SPLINE
  5
64
330
1F
100
AcDbEntity
  8
Layer 1
370
     0
100
AcDbSpline
210
0.0
220
0.0
230
1.0
 70
    11
 71
     3
 72
    17
 73
    13
 74
     0
 42
0.0000000001
 43
0.0000000001
 12
1.0
 22
0.0
 32
0.0
 13
1.0
 23
0.0
 33
0.0
 40
0.0
 40
0.0
 40
0.0
 40
0.0
 40
1.0
 40
1.0
 40
1.0
 40
2.0
 40
2.0
 40
2.0
 40
3.0
 40
3.0
 40
3.0
 40
4.0
 40
4.0
 40
4.0
 40
4.0
 10
2.276705635918511
 20
-4.980792999267578
 30
0.0
 10
2.247533374362522
 20
-5.261199951171875
 30
0.0
 10
2.261126412285698
 20
-5.461909823947482
 30
0.0
 10
2.318086200290256
 20
-5.565120697021484
 30
0.0
 10
2.375045988294813
 20
-5.668270534939236
 30
0.0
 10
2.474951426188151
 20
-5.674166361490885
 30
0.0
 10
2.619001388549805
 20
-5.563194274902344
 30
0.0
 10
2.907165315416124
 20
-5.341191609700521
 30
0.0
 10
2.852854198879666
 20
-3.31923590766059
 30
0.0
 10
2.852854198879666
 20
-3.31923590766059
 30
0.0
 10
2.852854198879666
 20
-3.31923590766059
 30
0.0
 10
2.335047192043728
 20
-4.419865078396267
 30
0.0
 10
2.276705635918511
 20
-4.980792999267578
 30
0.0
  0
SPLINE
  5
65
330
1F
100
AcDbEntity
  8
Layer 1
370
     0
100
AcDbSpline
210
0.0
220
0.0
230
1.0
 70
    11
 71
     3
 72
    11
 73
     7
 74
     0
 42
0.0000000001
 43
0.0000000001
 12
1.0
 22
0.0
 32
0.0
 13
1.0
 23
0.0
 33
0.0
 40
0.0
 40
0.0
 40
0.0
 40
0.0
 40
1.0
 40
1.0
 40
1.0
 40
2.0
 40
2.0
 40
2.0
 40
2.0
 10
2.543695873684353
 20
-4.945788913302951
 30
0.0
 10
2.393869400024414
 20
-4.633686065673828
 30
0.0
 10
2.804973602294922
 20
-3.5447875128852
 30
0.0
 10
2.804973602294922
 20
-3.5447875128852
 30
0.0
 10
2.900306913587782
 20
-3.922569274902344
 30
0.0
 10
2.543695873684353
 20
-4.945788913302951
 30
0.0
 10
2.543695873684353
 20
-4.945788913302951
 30
0.0
  0
SPLINE
  5
66
330
1F
100
AcDbEntity
  8
Layer 1
370
     0
100
AcDbSpline
210
0.0
220
0.0
230
1.0
 70
    11
 71
     3
 72
    23
 73
    19
 74
     0
 42
0.0000000001
 43
0.0000000001
 12
1.0
 22
0.0
 32
0.0
 13
1.0
 23
0.0
 33
0.0
 40
0.0
 40
0.0
 40
0.0
 40
0.0
 40
1.0
 40
1.0
 40
1.0
 40
2.0
 40
2.0
 40
2.0
 40
3.0
 40
3.0
 40
3.0
 40
4.0
 40
4.0
 40
4.0
 40
5.0
 40
5.0
 40
5.0
 40
6.0
 40
6.0
 40
6.0
 40
6.0
 10
9.550355699327257
 20
-2.418577829996745
 30
0.0
 10
11.97316148546007
 20
-0.577129152086046
 30
0.0
 10
8.593929714626736
 20
0.8408292134602864
 30
0.0
 10
8.977271185980902
 20
-2.178101433648004
 30
0.0
 10
8.593930562337238
 20
0.8408304850260416
 30
0.0
 10
5.676329718695746
 20
-1.376684824625651
 30
0.0
 10
8.482469346788195
 20
-2.554170820448133
 30
0.0
 10
5.676328870985243
 20
-1.376684718661838
 30
0.0
 10
6.137953864203559
 20
-5.012161254882812
 30
0.0
 10
8.560757954915363
 20
-3.170716603597005
 30
0.0
 10
6.137952168782552
 20
-5.012161254882812
 30
0.0
 10
9.517177157931856
 20
-6.430123647054036
 30
0.0
 10
9.133837381998697
 20
-3.411188761393229
 30
0.0
 10
9.517178853352863
 20
-6.430123223198784
 30
0.0
 10
12.43477884928385
 20
-4.212605370415582
 30
0.0
 10
9.628638373480902
 20
-3.035119374593099
 30
0.0
 10
12.43477884928385
 20
-4.212605370415582
 30
0.0
 10
11.97316148546007
 20
-0.577129152086046
 30
0.0
 10
9.550355699327257
 20
-2.418577829996745
 30
0.0
  0
ENDSEC
  0
SECTION
  2
OBJECTS
  0
DICTIONARY
  5
C
330
0
100
AcDbDictionary
281
     1
  3
ACAD_GROUP
350
D
  3
ACAD_LAYOUT
350
1A
  3
ACAD_MATERIAL
350
3B
  3
ACAD_MLEADERSTYLE
350
68
  3
ACAD_MLINESTYLE
350
17
  3
ACAD_PLOTSETTINGS
350
19
  3
ACAD_PLOTSTYLENAME
350
E
  3
ACAD_TABLESTYLE
350
67
  3
ACAD_VISUALSTYLE
350
2A
  0
SUN
  5
3F
330
29
100
AcDbSun
 90
        1
290
     0
 63
     7
421
 16777215
 40
1.0
291
     1
 91
  2455826
 92
 54000000
292
     0
 70
     2
 71
   256
280
     1
  0
DICTIONARY
  5
D
102
{ACAD_REACTORS
330
C
102
}
330
C
100
AcDbDictionary
281
     1
  0
DICTIONARY
  5
1A
102
{ACAD_REACTORS
330
C
102
}
330
C
100
AcDbDictionary
281
     1
  3
Layout1
350
1E
  3
Layout2
350
26
  3
Model
350
22
  0
DICTIONARY
  5
3B
102
{ACAD_REACTORS
330
C
102
}
330
C
100
AcDbDictionary
281
     1
  3
ByBlock
350
3D
  3
ByLayer
350
3C
  3
Global
350
3E
  0
DICTIONARY
  5
68
102
{ACAD_REACTORS
330
C
102
}
330
C
100
AcDbDictionary
281
     1
  0
DICTIONARY
  5
17
102
{ACAD_REACTORS
330
C
102
}
330
C
100
AcDbDictionary
281
     1
  3
Standard
350
18
  0
DICTIONARY
  5
19
102
{ACAD_REACTORS
330
C
102
}
330
C
100
AcDbDictionary
281
     1
  0
ACDBDICTIONARYWDFLT
  5
E
102
{ACAD_REACTORS
330
C
102
}
330
C
100
AcDbDictionary
281
     1
  3
Normal
350
F
100
AcDbDictionaryWithDefault
340
F
  0
DICTIONARY
  5
67
102
{ACAD_REACTORS
330
C
102
}
330
C
100
AcDbDictionary
281
     1
  0
DICTIONARY
  5
2A
102
{ACAD_REACTORS
330
C
102
}
330
C
100
AcDbDictionary
281
     1
  3
2dWireframe
350
2F
  3
3D Hidden
350
31
  3
3dWireframe
350
30
  3
Basic
350
32
  3
Brighten
350
36
  3
ColorChange
350
3A
  3
Conceptual
350
34
  3
Dim
350
35
  3
Facepattern
350
39
  3
Flat
350
2B
  3
FlatWithEdges
350
2C
  3
Gouraud
350
2D
  3
GouraudWithEdges
350
2E
  3
Linepattern
350
38
  3
Realistic
350
33
  3
Thicken
350
37
  0
LAYOUT
  5
1E
102
{ACAD_REACTORS
330
1A
102
}
330
1A
100
AcDbPlotSettings
  1

  2
none_device
  4

  6

 40
0.0
 41
0.0
 42
0.0
 43
0.0
 44
0.0
 45
0.0
 46
0.0
 47
0.0
 48
0.0
 49
0.0
140
0.0
141
0.0
142
1.0
143
1.0
 70
   688
 72
     0
 73
     0
 74
     5
  7

 75
    16
 76
     0
 77
     2
 78
   300
147
1.0
148
0.0
149
0.0
100
AcDbLayout
  1
Layout1
 70
     1
 71
     1
 10
0.0
 20
0.0
 11
12.0
 21
9.0
 12
0.0
 22
0.0
 32
0.0
 14
1.000000000000000E+20
 24
1.000000000000000E+20
 34
1.000000000000000E+20
 15
-1.000000000000000E+20
 25
-1.000000000000000E+20
 35
-1.000000000000000E+20
146
0.0
 13
0.0
 23
0.0
 33
0.0
 16
1.0
 26
0.0
 36
0.0
 17
0.0
 27
1.0
 37
0.0
 76
     0
330
1B
  0
LAYOUT
  5
26
102
{ACAD_REACTORS
330
1A
102
}
330
1A
100
AcDbPlotSettings
  1

  2
none_device
  4

  6

 40
0.0
 41
0.0
 42
0.0
 43
0.0
 44
0.0
 45
0.0
 46
0.0
 47
0.0
 48
0.0
 49
0.0
140
0.0
141
0.0
142
1.0
143
1.0
 70
   688
 72
     0
 73
     0
 74
     5
  7

 75
    16
 76
     0
 77
     2
 78
   300
147
1.0
148
0.0
149
0.0
100
AcDbLayout
  1
Layout2
 70
     1
 71
     2
 10
0.0
 20
0.0
 11
0.0
 21
0.0
 12
0.0
 22
0.0
 32
0.0
 14
0.0
 24
0.0
 34
0.0
 15
0.0
 25
0.0
 35
0.0
146
0.0
 13
0.0
 23
0.0
 33
0.0
 16
1.0
 26
0.0
 36
0.0
 17
0.0
 27
1.0
 37
0.0
 76
     0
330
23
  0
LAYOUT
  5
22
102
{ACAD_REACTORS
330
1A
102
}
330
1A
100
AcDbPlotSettings
  1

  2
none_device
  4

  6

 40
0.0
 41
0.0
 42
0.0
 43
0.0
 44
0.0
 45
0.0
 46
0.0
 47
0.0
 48
0.0
 49
0.0
140
0.0
141
0.0
142
1.0
143
1.0
 70
  1712
 72
     0
 73
     0
 74
     0
  7

 75
     0
 76
     0
 77
     2
 78
   300
147
1.0
148
0.0
149
0.0
100
AcDbLayout
  1
Model
 70
     1
 71
     0
 10
0.0
 20
0.0
 11
12.0
 21
9.0
 12
0.0
 22
0.0
 32
0.0
 14
1.000000000000000E+20
 24
1.000000000000000E+20
 34
1.000000000000000E+20
 15
-1.000000000000000E+20
 25
-1.000000000000000E+20
 35
-1.000000000000000E+20
146
0.0
 13
0.0
 23
0.0
 33
0.0
 16
1.0
 26
0.0
 36
0.0
 17
0.0
 27
1.0
 37
0.0
 76
     0
330
1F
331
29
  0
MATERIAL
  5
3D
102
{ACAD_REACTORS
330
3B
102
}
330
3B
100
AcDbMaterial
  1
ByBlock
 72
     1
 94
      127
  0
MATERIAL
  5
3C
102
{ACAD_REACTORS
330
3B
102
}
330
3B
100
AcDbMaterial
  1
ByLayer
 72
     1
 94
      127
  0
MATERIAL
  5
3E
102
{ACAD_REACTORS
330
3B
102
}
330
3B
100
AcDbMaterial
  1
Global
 72
     1
 94
      127
  0
MLINESTYLE
  5
18
102
{ACAD_REACTORS
330
17
102
}
330
17
100
AcDbMlineStyle
  2
Standard
 70
     0
  3

 62
   256
 51
90.0
 52
90.0
 71
     2
 49
0.5
 62
   256
  6
BYLAYER
 49
-0.5
 62
   256
  6
BYLAYER
  0
ACDBPLACEHOLDER
  5
F
102
{ACAD_REACTORS
330
E
102
}
330
E
  0
VISUALSTYLE
  5
2F
102
{ACAD_REACTORS
330
2A
102
}
330
2A
100
AcDbVisualStyle
  2
2dWireframe
 70
     4
177
     2
291
     0
 71
     0
176
     1
 72
     2
176
     1
 73
     0
176
     1
 90
        0
176
     1
 40
-0.6
176
     1
 41
-30.0
176
     1
 62
     5
 63
     7
421
 16777215
176
     1
 74
     1
176
     1
 91
        4
176
     1
 64
     7
176
     1
 65
   257
176
     1
 75
     1
176
     1
175
     1
176
     1
 42
1.0
176
     1
 92
        0
176
     1
 66
   257
176
     1
 43
1.0
176
     1
 76
     1
176
     1
 77
     6
176
     1
 78
     2
176
     1
 67
     7
176
     1
 79
     5
176
     1
170
     0
176
     1
171
     0
176
     1
290
     0
176
     1
 93
        1
176
     1
 44
0.0
176
     1
173
     0
176
     1
  0
VISUALSTYLE
  5
31
102
{ACAD_REACTORS
330
2A
102
}
330
2A
100
AcDbVisualStyle
  2
3D Hidden
 70
     6
177
     2
291
     0
 71
     1
176
     1
 72
     2
176
     1
 73
     2
176
     1
 90
        0
176
     1
 40
-0.6
176
     1
 41
-30.0
176
     1
 62
     5
 63
     7
421
 16777215
176
     1
 74
     2
176
     1
 91
        2
176
     1
 64
     7
176
     1
 65
   257
176
     1
 75
     2
176
     1
175
     1
176
     1
 42
40.0
176
     1
 92
        0
176
     1
 66
   257
176
     1
 43
1.0
176
     1
 76
     1
176
     1
 77
     6
176
     1
 78
     2
176
     1
 67
     7
176
     1
 79
     3
176
     1
170
     0
176
     1
171
     0
176
     1
290
     0
176
     1
 93
        1
176
     1
 44
0.0
176
     1
173
     0
176
     1
  0
VISUALSTYLE
  5
30
102
{ACAD_REACTORS
330
2A
102
}
330
2A
100
AcDbVisualStyle
  2
3dWireframe
 70
     5
177
     2
291
     0
 71
     0
176
     1
 72
     2
176
     1
 73
     0
176
     1
 90
        0
176
     1
 40
-0.6
176
     1
 41
-30.0
176
     1
 62
     5
 63
     7
421
 16777215
176
     1
 74
     1
176
     1
 91
        4
176
     1
 64
     7
176
     1
 65
   257
176
     1
 75
     1
176
     1
175
     1
176
     1
 42
1.0
176
     1
 92
        0
176
     1
 66
   257
176
     1
 43
1.0
176
     1
 76
     1
176
     1
 77
     6
176
     1
 78
     2
176
     1
 67
     7
176
     1
 79
     5
176
     1
170
     0
176
     1
171
     0
176
     1
290
     0
176
     1
 93
        1
176
     1
 44
0.0
176
     1
173
     0
176
     1
  0
VISUALSTYLE
  5
32
102
{ACAD_REACTORS
330
2A
102
}
330
2A
100
AcDbVisualStyle
  2
Basic
 70
     7
177
     2
291
     1
 71
     1
176
     1
 72
     0
176
     1
 73
     1
176
     1
 90
        0
176
     1
 40
-0.6
176
     1
 41
-30.0
176
     1
 62
     5
 63
     7
421
 16777215
176
     1
 74
     0
176
     1
 91
        4
176
     1
 64
     7
176
     1
 65
   257
176
     1
 75
     1
176
     1
175
     1
176
     1
 42
1.0
176
     1
 92
        8
176
     1
 66
     7
176
     1
 43
1.0
176
     1
 76
     1
176
     1
 77
     6
176
     1
 78
     2
176
     1
 67
     7
176
     1
 79
     5
176
     1
170
     0
176
     1
171
     0
176
     1
290
     0
176
     1
 93
        1
176
     1
 44
0.0
176
     1
173
     0
176
     1
  0
VISUALSTYLE
  5
36
102
{ACAD_REACTORS
330
2A
102
}
330
2A
100
AcDbVisualStyle
  2
Brighten
 70
    12
177
     2
291
     1
 71
     2
176
     1
 72
     2
176
     1
 73
     0
176
     1
 90
        0
176
     1
 40
-0.6
176
     1
 41
-30.0
176
     1
 62
     5
 63
     7
421
 16777215
176
     1
 74
     1
176
     1
 91
        4
176
     1
 64
     7
176
     1
 65
   257
176
     1
 75
     1
176
     1
175
     1
176
     1
 42
1.0
176
     1
 92
        8
176
     1
 66
     7
176
     1
 43
1.0
176
     1
 76
     1
176
     1
 77
     6
176
     1
 78
     2
176
     1
 67
     7
176
     1
 79
     5
176
     1
170
     0
176
     1
171
     0
176
     1
290
     0
176
     1
 93
        1
176
     1
 44
50.0
176
     1
173
     0
176
     1
  0
VISUALSTYLE
  5
3A
102
{ACAD_REACTORS
330
2A
102
}
330
2A
100
AcDbVisualStyle
  2
ColorChange
 70
    16
177
     2
291
     1
 71
     2
176
     1
 72
     2
176
     1
 73
     3
176
     1
 90
        0
176
     1
 40
-0.6
176
     1
 41
-30.0
176
     1
 62
     5
 63
     8
421
  8421504
176
     1
 74
     1
176
     1
 91
        4
176
     1
 64
     7
176
     1
 65
   257
176
     1
 75
     1
176
     1
175
     1
176
     1
 42
1.0
176
     1
 92
        8
176
     1
 66
     8
424
  8421504
176
     1
 43
1.0
176
     1
 76
     1
176
     1
 77
     6
176
     1
 78
     2
176
     1
 67
     7
176
     1
 79
     5
176
     1
170
     0
176
     1
171
     0
176
     1
290
     0
176
     1
 93
        1
176
     1
 44
0.0
176
     1
173
     0
176
     1
  0
VISUALSTYLE
  5
34
102
{ACAD_REACTORS
330
2A
102
}
330
2A
100
AcDbVisualStyle
  2
Conceptual
 70
     9
177
     2
291
     0
 71
     3
176
     1
 72
     2
176
     1
 73
     0
176
     1
 90
        0
176
     1
 40
-0.6
176
     1
 41
-30.0
176
     1
 62
     5
 63
     7
421
 16777215
176
     1
 74
     2
176
     1
 91
        2
176
     1
 64
     7
176
     1
 65
   257
176
     1
 75
     1
176
     1
175
     1
176
     1
 42
40.0
176
     1
 92
        8
176
     1
 66
     7
176
     1
 43
1.0
176
     1
 76
     1
176
     1
 77
     6
176
     1
 78
     2
176
     1
 67
     7
176
     1
 79
     3
176
     1
170
     0
176
     1
171
     0
176
     1
290
     0
176
     1
 93
        1
176
     1
 44
0.0
176
     1
173
     0
176
     1
  0
VISUALSTYLE
  5
35
102
{ACAD_REACTORS
330
2A
102
}
330
2A
100
AcDbVisualStyle
  2
Dim
 70
    11
177
     2
291
     1
 71
     2
176
     1
 72
     2
176
     1
 73
     0
176
     1
 90
        0
176
     1
 40
-0.6
176
     1
 41
-30.0
176
     1
 62
     5
 63
     7
421
 16777215
176
     1
 74
     1
176
     1
 91
        4
176
     1
 64
     7
176
     1
 65
   257
176
     1
 75
     1
176
     1
175
     1
176
     1
 42
1.0
176
     1
 92
        8
176
     1
 66
     7
176
     1
 43
1.0
176
     1
 76
     1
176
     1
 77
     6
176
     1
 78
     2
176
     1
 67
     7
176
     1
 79
     5
176
     1
170
     0
176
     1
171
     0
176
     1
290
     0
176
     1
 93
        1
176
     1
 44
-50.0
176
     1
173
     0
176
     1
  0
VISUALSTYLE
  5
39
102
{ACAD_REACTORS
330
2A
102
}
330
2A
100
AcDbVisualStyle
  2
Facepattern
 70
    15
177
     2
291
     1
 71
     2
176
     1
 72
     2
176
     1
 73
     0
176
     1
 90
        0
176
     1
 40
-0.6
176
     1
 41
-30.0
176
     1
 62
     5
 63
     7
421
 16777215
176
     1
 74
     1
176
     1
 91
        4
176
     1
 64
     7
176
     1
 65
   257
176
     1
 75
     1
176
     1
175
     1
176
     1
 42
1.0
176
     1
 92
        8
176
     1
 66
     7
176
     1
 43
1.0
176
     1
 76
     1
176
     1
 77
     6
176
     1
 78
     2
176
     1
 67
     7
176
     1
 79
     5
176
     1
170
     0
176
     1
171
     0
176
     1
290
     0
176
     1
 93
        1
176
     1
 44
0.0
176
     1
173
     0
176
     1
  0
VISUALSTYLE
  5
2B
102
{ACAD_REACTORS
330
2A
102
}
330
2A
100
AcDbVisualStyle
  2
Flat
 70
     0
177
     2
291
     1
 71
     2
176
     1
 72
     1
176
     1
 73
     1
176
     1
 90
        2
176
     1
 40
-0.6
176
     1
 41
30.0
176
     1
 62
     5
 63
     7
421
 16777215
176
     1
 74
     0
176
     1
 91
        4
176
     1
 64
     7
176
     1
 65
   257
176
     1
 75
     1
176
     1
175
     1
176
     1
 42
1.0
176
     1
 92
        8
176
     1
 66
     7
176
     1
 43
1.0
176
     1
 76
     1
176
     1
 77
     6
176
     1
 78
     2
176
     1
 67
     7
176
     1
 79
     5
176
     1
170
     0
176
     1
171
     0
176
     1
290
     0
176
     1
 93
       13
176
     1
 44
0.0
176
     1
173
     0
176
     1
  0
VISUALSTYLE
  5
2C
102
{ACAD_REACTORS
330
2A
102
}
330
2A
100
AcDbVisualStyle
  2
FlatWithEdges
 70
     1
177
     2
291
     1
 71
     2
176
     1
 72
     1
176
     1
 73
     1
176
     1
 90
        2
176
     1
 40
-0.6
176
     1
 41
30.0
176
     1
 62
     5
 63
     7
421
 16777215
176
     1
 74
     1
176
     1
 91
        4
176
     1
 64
     7
176
     1
 65
   257
176
     1
 75
     1
176
     1
175
     1
176
     1
 42
1.0
176
     1
 92
        0
176
     1
 66
   257
176
     1
 43
1.0
176
     1
 76
     1
176
     1
 77
     6
176
     1
 78
     2
176
     1
 67
     7
176
     1
 79
     5
176
     1
170
     0
176
     1
171
     0
176
     1
290
     0
176
     1
 93
       13
176
     1
 44
0.0
176
     1
173
     0
176
     1
  0
VISUALSTYLE
  5
2D
102
{ACAD_REACTORS
330
2A
102
}
330
2A
100
AcDbVisualStyle
  2
Gouraud
 70
     2
177
     2
291
     1
 71
     2
176
     1
 72
     2
176
     1
 73
     1
176
     1
 90
        2
176
     1
 40
-0.6
176
     1
 41
30.0
176
     1
 62
     5
 63
     7
421
 16777215
176
     1
 74
     0
176
     1
 91
        4
176
     1
 64
     7
176
     1
 65
   257
176
     1
 75
     1
176
     1
175
     1
176
     1
 42
1.0
176
     1
 92
        0
176
     1
 66
     7
176
     1
 43
1.0
176
     1
 76
     1
176
     1
 77
     6
176
     1
 78
     2
176
     1
 67
     7
176
     1
 79
     5
176
     1
170
     0
176
     1
171
     0
176
     1
290
     0
176
     1
 93
       13
176
     1
 44
0.0
176
     1
173
     0
176
     1
  0
VISUALSTYLE
  5
2E
102
{ACAD_REACTORS
330
2A
102
}
330
2A
100
AcDbVisualStyle
  2
GouraudWithEdges
 70
     3
177
     2
291
     1
 71
     2
176
     1
 72
     2
176
     1
 73
     1
176
     1
 90
        2
176
     1
 40
-0.6
176
     1
 41
30.0
176
     1
 62
     5
 63
     7
421
 16777215
176
     1
 74
     1
176
     1
 91
        4
176
     1
 64
     7
176
     1
 65
   257
176
     1
 75
     1
176
     1
175
     1
176
     1
 42
1.0
176
     1
 92
        0
176
     1
 66
   257
176
     1
 43
1.0
176
     1
 76
     1
176
     1
 77
     6
176
     1
 78
     2
176
     1
 67
     7
176
     1
 79
     5
176
     1
170
     0
176
     1
171
     0
176
     1
290
     0
176
     1
 93
       13
176
     1
 44
0.0
176
     1
173
     0
176
     1
  0
VISUALSTYLE
  5
38
102
{ACAD_REACTORS
330
2A
102
}
330
2A
100
AcDbVisualStyle
  2
Linepattern
 70
    14
177
     2
291
     1
 71
     2
176
     1
 72
     2
176
     1
 73
     0
176
     1
 90
        0
176
     1
 40
-0.6
176
     1
 41
-30.0
176
     1
 62
     5
 63
     7
421
 16777215
176
     1
 74
     1
176
     1
 91
        4
176
     1
 64
     7
176
     1
 65
   257
176
     1
 75
     7
176
     1
175
     7
176
     1
 42
1.0
176
     1
 92
        8
176
     1
 66
     7
176
     1
 43
1.0
176
     1
 76
     1
176
     1
 77
     6
176
     1
 78
     2
176
     1
 67
     7
176
     1
 79
     5
176
     1
170
     0
176
     1
171
     0
176
     1
290
     0
176
     1
 93
        1
176
     1
 44
0.0
176
     1
173
     0
176
     1
  0
VISUALSTYLE
  5
33
102
{ACAD_REACTORS
330
2A
102
}
330
2A
100
AcDbVisualStyle
  2
Realistic
 70
     8
177
     2
291
     0
 71
     2
176
     1
 72
     2
176
     1
 73
     0
176
     1
 90
        0
176
     1
 40
-0.6
176
     1
 41
-30.0
176
     1
 62
     5
 63
     7
421
 16777215
176
     1
 74
     1
176
     1
 91
        0
176
     1
 64
     7
176
     1
 65
   257
176
     1
 75
     1
176
     1
175
     1
176
     1
 42
1.0
176
     1
 92
        8
176
     1
 66
     8
424
  7895160
176
     1
 43
1.0
176
     1
 76
     1
176
     1
 77
     6
176
     1
 78
     2
176
     1
 67
     7
176
     1
 79
     5
176
     1
170
     0
176
     1
171
     0
176
     1
290
     0
176
     1
 93
       13
176
     1
 44
0.0
176
     1
173
     0
176
     1
  0
VISUALSTYLE
  5
37
102
{ACAD_REACTORS
330
2A
102
}
330
2A
100
AcDbVisualStyle
  2
Thicken
 70
    13
177
     2
291
     1
 71
     2
176
     1
 72
     2
176
     1
 73
     0
176
     1
 90
        0
176
     1
 40
-0.6
176
     1
 41
-30.0
176
     1
 62
     5
 63
     7
421
 16777215
176
     1
 74
     1
176
     1
 91
        4
176
     1
 64
     7
176
     1
 65
   257
176
     1
 75
     1
176
     1
175
     1
176
     1
 42
1.0
176
     1
 92
       12
176
     1
 66
     7
176
     1
 43
1.0
176
     1
 76
     1
176
     1
 77
     6
176
     1
 78
     2
176
     1
 67
     7
176
     1
 79
     5
176
     1
170
     0
176
     1
171
     0
176
     1
290
     0
176
     1
 93
        1
176
     1
 44
0.0
176
     1
173
     0
176
     1
  0
ENDSEC
  0
EOF
